<svg width="154" height="18" viewBox="0 0 154 18" fill="none" xmlns="http://www.w3.org/2000/svg">
<path d="M1.81934 6.89844H4.20117C5.05078 6.89844 5.70996 6.73145 6.17871 6.39746C6.64746 6.05762 6.88184 5.49219 6.88184 4.70117C6.88184 4.37891 6.84668 4.10059 6.77637 3.86621C6.71191 3.62598 6.61523 3.42676 6.48633 3.26855C6.36328 3.11035 6.19629 2.98438 5.98535 2.89062C5.78027 2.79102 5.54883 2.7207 5.29102 2.67969C5.0332 2.63867 4.72852 2.61816 4.37695 2.61816C4.36523 2.61816 4.35352 2.61816 4.3418 2.61816C4.33594 2.61816 4.32715 2.61816 4.31543 2.61816C4.30371 2.61816 4.29199 2.61816 4.28027 2.61816H1.81934V6.89844ZM0.149414 14V1.20312H4.24512C4.77246 1.20312 5.24414 1.23242 5.66016 1.29102C6.07617 1.34375 6.47461 1.44629 6.85547 1.59863C7.24219 1.75098 7.56152 1.95312 7.81348 2.20508C8.06543 2.45117 8.26465 2.77637 8.41113 3.18066C8.56348 3.58496 8.63965 4.05957 8.63965 4.60449C8.63965 5.40723 8.43457 6.07812 8.02441 6.61719C7.61426 7.15625 6.99023 7.51367 6.15234 7.68945C6.63281 7.8418 7.01074 8.1084 7.28613 8.48926C7.56738 8.86426 7.85156 9.41211 8.13867 10.1328L9.6416 14H7.84863L6.44238 10.2383C6.24316 9.69922 6.05859 9.30371 5.88867 9.05176C5.72461 8.7998 5.50781 8.61523 5.23828 8.49805C4.96875 8.375 4.59668 8.31348 4.12207 8.31348H1.82812V14H0.149414ZM15.8906 14.1934C14.4316 14.1934 13.2891 13.7598 12.4629 12.8926C11.6426 12.0254 11.2324 10.8945 11.2324 9.5C11.2324 8.08203 11.6455 6.93652 12.4717 6.06348C13.3037 5.19043 14.4492 4.75391 15.9082 4.75391C17.3613 4.75391 18.4922 5.19043 19.3008 6.06348C20.1094 6.93066 20.5137 8.07617 20.5137 9.5C20.5137 10.8945 20.1035 12.0254 19.2832 12.8926C18.4629 13.7598 17.332 14.1934 15.8906 14.1934ZM15.8906 12.875C16.8398 12.875 17.5635 12.5674 18.0615 11.9521C18.5654 11.3369 18.8174 10.5195 18.8174 9.5C18.8174 8.46289 18.5625 7.63379 18.0527 7.0127C17.5488 6.38574 16.8252 6.07227 15.8818 6.07227C14.9326 6.07227 14.2031 6.38574 13.6934 7.0127C13.1836 7.63379 12.9287 8.46289 12.9287 9.5C12.9287 10.5195 13.1807 11.3369 13.6846 11.9521C14.1943 12.5674 14.9297 12.875 15.8906 12.875ZM22.957 14V7.33789C22.957 7.0332 22.9248 6.24805 22.8604 4.98242H24.5391L24.5566 6.44141C24.7969 5.91406 25.1807 5.50098 25.708 5.20215C26.2354 4.90332 26.8125 4.75391 27.4395 4.75391C28.084 4.75391 28.6465 4.92383 29.127 5.26367C29.6133 5.60352 29.9648 6.08398 30.1816 6.70508C30.5098 6.0957 30.9521 5.61816 31.5088 5.27246C32.0713 4.92676 32.7041 4.75391 33.4072 4.75391C34.4326 4.75391 35.209 5.08203 35.7363 5.73828C36.2695 6.38867 36.5361 7.30273 36.5361 8.48047V14H34.9189V8.6123C34.9189 7.81543 34.7842 7.19434 34.5146 6.74902C34.2451 6.29785 33.8291 6.07227 33.2666 6.07227C32.5459 6.07227 31.9248 6.33594 31.4033 6.86328C30.8877 7.38477 30.6123 8.0293 30.5771 8.79688V14H28.96V8.47168C28.96 7.75098 28.8193 7.1709 28.5381 6.73145C28.2568 6.29199 27.8086 6.07227 27.1934 6.07227C26.4844 6.07227 25.8838 6.30957 25.3916 6.78418C24.8994 7.25879 24.6299 7.83301 24.583 8.50684V14H22.957ZM43.4883 14.1934C42.0293 14.1934 40.8867 13.7598 40.0605 12.8926C39.2402 12.0254 38.8301 10.8945 38.8301 9.5C38.8301 8.08203 39.2432 6.93652 40.0693 6.06348C40.9014 5.19043 42.0469 4.75391 43.5059 4.75391C44.959 4.75391 46.0898 5.19043 46.8984 6.06348C47.707 6.93066 48.1113 8.07617 48.1113 9.5C48.1113 10.8945 47.7012 12.0254 46.8809 12.8926C46.0605 13.7598 44.9297 14.1934 43.4883 14.1934ZM43.4883 12.875C44.4375 12.875 45.1611 12.5674 45.6592 11.9521C46.1631 11.3369 46.415 10.5195 46.415 9.5C46.415 8.46289 46.1602 7.63379 45.6504 7.0127C45.1465 6.38574 44.4229 6.07227 43.4795 6.07227C42.5303 6.07227 41.8008 6.38574 41.291 7.0127C40.7812 7.63379 40.5264 8.46289 40.5264 9.5C40.5264 10.5195 40.7783 11.3369 41.2822 11.9521C41.792 12.5674 42.5273 12.875 43.4883 12.875ZM50.5283 14V0.939453H52.1455V8.84082L56.0566 4.98242H58.2715L53.7012 9.28027L58.5879 14H56.4434L52.1455 9.7373V14H50.5283ZM61.374 8.6123H66.5508C66.4922 7.78613 66.252 7.15039 65.8301 6.70508C65.4082 6.25977 64.8457 6.03711 64.1426 6.03711C63.4043 6.03711 62.7861 6.26562 62.2881 6.72266C61.7959 7.17969 61.4912 7.80957 61.374 8.6123ZM64.3447 14.1934C62.9092 14.1934 61.7695 13.7686 60.9258 12.9189C60.082 12.0635 59.6602 10.9297 59.6602 9.51758C59.6602 8.12891 60.0645 6.98926 60.873 6.09863C61.6875 5.20215 62.7627 4.75391 64.0986 4.75391C64.9424 4.75391 65.6631 4.9502 66.2607 5.34277C66.8643 5.73535 67.3096 6.26855 67.5967 6.94238C67.8896 7.61621 68.0361 8.39844 68.0361 9.28906C68.0361 9.40039 68.0273 9.54395 68.0098 9.71973H61.3301C61.3477 10.7275 61.6377 11.5068 62.2002 12.0576C62.7627 12.6025 63.5068 12.875 64.4326 12.875C65.5107 12.875 66.4658 12.541 67.2979 11.873L67.7812 13.0684C66.8145 13.8184 65.6689 14.1934 64.3447 14.1934ZM81.4307 14.1934C79.4971 14.1934 77.9736 13.5986 76.8604 12.4092C75.7529 11.2197 75.1992 9.61426 75.1992 7.59277C75.1992 6.28613 75.4424 5.1377 75.9287 4.14746C76.4209 3.15137 77.1416 2.375 78.0908 1.81836C79.04 1.25586 80.1592 0.974609 81.4482 0.974609C83.3291 0.974609 84.8262 1.58398 85.9395 2.80273C87.0586 4.01562 87.6182 5.6123 87.6182 7.59277C87.6182 9.6084 87.0674 11.2139 85.9658 12.4092C84.8643 13.5986 83.3525 14.1934 81.4307 14.1934ZM81.4131 12.7783C82.8428 12.7783 83.9297 12.3184 84.6738 11.3984C85.418 10.4727 85.79 9.2041 85.79 7.59277C85.79 6.0166 85.415 4.75684 84.665 3.81348C83.9209 2.86426 82.8428 2.38965 81.4307 2.38965C80.0244 2.38965 78.9316 2.86719 78.1523 3.82227C77.3789 4.77148 76.9922 6.02832 76.9922 7.59277C76.9922 9.19824 77.373 10.4639 78.1348 11.3896C78.8965 12.3154 79.9893 12.7783 81.4131 12.7783ZM93.7969 12.875C94.6816 12.875 95.3643 12.5615 95.8447 11.9346C96.3252 11.3076 96.5654 10.4668 96.5654 9.41211C96.5654 8.42188 96.3223 7.61914 95.8359 7.00391C95.3496 6.38281 94.6787 6.07227 93.8232 6.07227C92.9678 6.07227 92.3027 6.38574 91.8281 7.0127C91.3535 7.63379 91.1162 8.45703 91.1162 9.48242C91.1162 10.502 91.3477 11.3223 91.8105 11.9434C92.2734 12.5645 92.9355 12.875 93.7969 12.875ZM93.5596 14.1934C92.3525 14.1934 91.3623 13.7686 90.5889 12.9189C89.8213 12.0635 89.4375 10.9297 89.4375 9.51758C89.4375 8.5918 89.6016 7.77441 89.9297 7.06543C90.2578 6.35059 90.7412 5.78809 91.3799 5.37793C92.0244 4.96191 92.7803 4.75391 93.6475 4.75391C94.3389 4.75391 94.9424 4.90918 95.458 5.21973C95.9736 5.53027 96.3311 5.90234 96.5303 6.33594V0.939453H98.1562V11.6621C98.1621 12.2012 98.1826 12.9805 98.2178 14H96.5742L96.5391 12.4707C96.3574 12.9395 96.0059 13.3438 95.4844 13.6836C94.9688 14.0234 94.3271 14.1934 93.5596 14.1934ZM104.537 14.2021C103.383 14.2021 102.516 13.874 101.936 13.2178C101.355 12.5557 101.065 11.668 101.065 10.5547V4.98242H102.674V10.5547C102.674 11.3281 102.855 11.9111 103.219 12.3037C103.588 12.6904 104.118 12.8838 104.81 12.8838C105.601 12.8838 106.219 12.6582 106.664 12.207C107.109 11.7559 107.332 11.1729 107.332 10.458V4.98242H108.949V11.7676C108.949 12.5703 108.976 13.3145 109.028 14H107.385L107.341 12.5498C107.089 13.0127 106.731 13.4053 106.269 13.7275C105.806 14.0439 105.229 14.2021 104.537 14.2021ZM112.061 14V7.47852C112.061 7.08008 112.052 6.67285 112.034 6.25684C112.022 5.84082 112.008 5.52441 111.99 5.30762L111.964 4.98242H113.634L113.651 6.39746C113.962 5.88184 114.396 5.48047 114.952 5.19336C115.515 4.90039 116.106 4.75391 116.728 4.75391C117.864 4.75391 118.702 5.09961 119.241 5.79102C119.78 6.47656 120.05 7.51953 120.05 8.91992V14H118.433V8.92871C118.433 7.9502 118.286 7.22949 117.993 6.7666C117.7 6.30371 117.185 6.07227 116.446 6.07227C115.767 6.07227 115.148 6.30371 114.592 6.7666C114.035 7.22363 113.733 7.75098 113.687 8.34863V14H112.061ZM126.316 14.2021C125.162 14.2021 124.295 13.874 123.715 13.2178C123.135 12.5557 122.845 11.668 122.845 10.5547V4.98242H124.453V10.5547C124.453 11.3281 124.635 11.9111 124.998 12.3037C125.367 12.6904 125.897 12.8838 126.589 12.8838C127.38 12.8838 127.998 12.6582 128.443 12.207C128.889 11.7559 129.111 11.1729 129.111 10.458V4.98242H130.729V11.7676C130.729 12.5703 130.755 13.3145 130.808 14H129.164L129.12 12.5498C128.868 13.0127 128.511 13.4053 128.048 13.7275C127.585 14.0439 127.008 14.2021 126.316 14.2021ZM137.505 12.6113C138.419 12.6113 139.113 12.3154 139.588 11.7236C140.062 11.126 140.3 10.3262 140.3 9.32422C140.3 8.33398 140.062 7.5459 139.588 6.95996C139.119 6.36816 138.463 6.07227 137.619 6.07227C136.758 6.07227 136.081 6.38281 135.589 7.00391C135.097 7.625 134.851 8.43945 134.851 9.44727C134.851 10.4492 135.082 11.2285 135.545 11.7852C136.008 12.3359 136.661 12.6113 137.505 12.6113ZM137.303 17.6738C136.119 17.6738 135.009 17.4189 133.972 16.9092L134.227 15.5117C135.223 16.0801 136.228 16.3643 137.241 16.3643C138.202 16.3643 138.946 16.1064 139.474 15.5908C140.001 15.0752 140.265 14.2959 140.265 13.2529V12.3125C140.013 12.7637 139.646 13.1387 139.166 13.4375C138.691 13.7305 138.105 13.877 137.408 13.877C136.16 13.877 135.141 13.4814 134.35 12.6904C133.564 11.8936 133.172 10.8184 133.172 9.46484C133.172 8.54492 133.33 7.7334 133.646 7.03027C133.969 6.32715 134.452 5.77344 135.097 5.36914C135.741 4.95898 136.509 4.75391 137.399 4.75391C138.085 4.75391 138.668 4.90039 139.148 5.19336C139.629 5.48633 140.001 5.86133 140.265 6.31836L140.291 4.98242H141.961C141.896 5.95508 141.864 6.76367 141.864 7.4082V12.7695C141.864 13.4844 141.776 14.1348 141.601 14.7207C141.425 15.3066 141.155 15.8223 140.792 16.2676C140.435 16.7129 139.96 17.0586 139.368 17.3047C138.776 17.5508 138.088 17.6738 137.303 17.6738ZM148.834 12.875C149.73 12.875 150.413 12.5645 150.882 11.9434C151.356 11.3164 151.594 10.4756 151.594 9.4209C151.594 8.4248 151.354 7.61914 150.873 7.00391C150.393 6.38281 149.707 6.07227 148.816 6.07227C147.879 6.07227 147.164 6.38281 146.672 7.00391C146.186 7.625 145.942 8.43945 145.942 9.44727C145.942 10.4609 146.188 11.2871 146.681 11.9258C147.173 12.5586 147.891 12.875 148.834 12.875ZM148.605 14.1934C147.932 14.1934 147.319 14.0674 146.769 13.8154C146.224 13.5635 145.772 13.2236 145.415 12.7959C145.063 12.3623 144.791 11.8643 144.598 11.3018C144.41 10.7334 144.316 10.1299 144.316 9.49121C144.316 8.6123 144.486 7.81836 144.826 7.10938C145.172 6.39453 145.673 5.82324 146.329 5.39551C146.985 4.96777 147.744 4.75391 148.605 4.75391C149.244 4.75391 149.824 4.90918 150.346 5.21973C150.873 5.53027 151.271 5.92871 151.541 6.41504V4.98242H153.141V14H151.523V12.4619C151.266 13.001 150.882 13.4258 150.372 13.7363C149.862 14.041 149.273 14.1934 148.605 14.1934Z" fill="#9B51E0"/>
</svg>
