<svg width="551" height="45" viewBox="0 0 551 45" fill="none" xmlns="http://www.w3.org/2000/svg">
<path d="M38.5908 14V1.20312H40.6299C40.7764 1.54297 41.4355 3.04883 42.6074 5.7207C43.7793 8.38672 44.667 10.4229 45.2705 11.8291C45.874 10.417 46.7646 8.37793 47.9424 5.71191C49.126 3.0459 49.7939 1.54297 49.9463 1.20312H51.9414V14H50.3418V3.93652C49.7676 5.26074 48.9297 7.15039 47.8281 9.60547C46.7324 12.0547 46.0791 13.5195 45.8682 14H44.6641L40.8672 5.44824L40.208 3.86621V14H38.5908ZM55.5625 17.8057L54.9033 16.6982C56.3623 16.2119 57.2676 15.4414 57.6191 14.3867L57.7686 13.9297L54.0859 4.98242H55.7822L58.5684 12.1895L61.1787 4.98242H62.8047L59.166 14.4746C58.8438 15.3242 58.3721 16.0391 57.751 16.6191C57.1357 17.1992 56.4062 17.5947 55.5625 17.8057ZM70.9346 8.6123H76.1113C76.0527 7.78613 75.8125 7.15039 75.3906 6.70508C74.9688 6.25977 74.4062 6.03711 73.7031 6.03711C72.9648 6.03711 72.3467 6.26562 71.8486 6.72266C71.3564 7.17969 71.0518 7.80957 70.9346 8.6123ZM73.9053 14.1934C72.4697 14.1934 71.3301 13.7686 70.4863 12.9189C69.6426 12.0635 69.2207 10.9297 69.2207 9.51758C69.2207 8.12891 69.625 6.98926 70.4336 6.09863C71.248 5.20215 72.3232 4.75391 73.6592 4.75391C74.5029 4.75391 75.2236 4.9502 75.8213 5.34277C76.4248 5.73535 76.8701 6.26855 77.1572 6.94238C77.4502 7.61621 77.5967 8.39844 77.5967 9.28906C77.5967 9.40039 77.5879 9.54395 77.5703 9.71973H70.8906C70.9082 10.7275 71.1982 11.5068 71.7607 12.0576C72.3232 12.6025 73.0674 12.875 73.9932 12.875C75.0713 12.875 76.0264 12.541 76.8584 11.873L77.3418 13.0684C76.375 13.8184 75.2295 14.1934 73.9053 14.1934ZM78.9766 14L82.3955 9.5L79.1787 4.97363L80.9453 4.98242L83.2656 8.33105L85.7617 4.98242H87.4668L84.1709 9.39453L87.5371 14H85.7793L83.2832 10.5547L80.6904 14H78.9766ZM93.8301 12.8838C94.6797 12.8838 95.333 12.5703 95.79 11.9434C96.2529 11.3164 96.4844 10.4902 96.4844 9.46484C96.4844 8.44531 96.2529 7.62793 95.79 7.0127C95.333 6.3916 94.6826 6.08105 93.8389 6.08105C92.9717 6.08105 92.292 6.40332 91.7998 7.04785C91.3135 7.68652 91.0703 8.53027 91.0703 9.5791C91.0703 10.5752 91.3105 11.375 91.791 11.9785C92.2715 12.582 92.9512 12.8838 93.8301 12.8838ZM89.5059 17.7617V7.60156C89.5059 7.20898 89.4736 6.33594 89.4092 4.98242H91.1055L91.1143 6.59961C91.2842 6.10156 91.6533 5.6709 92.2217 5.30762C92.79 4.94434 93.4287 4.7627 94.1377 4.7627C95.3564 4.7627 96.332 5.19629 97.0645 6.06348C97.7969 6.93066 98.1631 8.04688 98.1631 9.41211C98.1631 10.8008 97.791 11.9463 97.0469 12.8486C96.3086 13.751 95.3271 14.2021 94.1025 14.2021C93.3877 14.2021 92.752 14.0352 92.1953 13.7012C91.6387 13.3672 91.2783 12.9805 91.1143 12.541V17.7617H89.5059ZM101.661 8.6123H106.838C106.779 7.78613 106.539 7.15039 106.117 6.70508C105.695 6.25977 105.133 6.03711 104.43 6.03711C103.691 6.03711 103.073 6.26562 102.575 6.72266C102.083 7.17969 101.778 7.80957 101.661 8.6123ZM104.632 14.1934C103.196 14.1934 102.057 13.7686 101.213 12.9189C100.369 12.0635 99.9473 10.9297 99.9473 9.51758C99.9473 8.12891 100.352 6.98926 101.16 6.09863C101.975 5.20215 103.05 4.75391 104.386 4.75391C105.229 4.75391 105.95 4.9502 106.548 5.34277C107.151 5.73535 107.597 6.26855 107.884 6.94238C108.177 7.61621 108.323 8.39844 108.323 9.28906C108.323 9.40039 108.314 9.54395 108.297 9.71973H101.617C101.635 10.7275 101.925 11.5068 102.487 12.0576C103.05 12.6025 103.794 12.875 104.72 12.875C105.798 12.875 106.753 12.541 107.585 11.873L108.068 13.0684C107.102 13.8184 105.956 14.1934 104.632 14.1934ZM110.881 14V7.19727C110.881 6.99805 110.869 6.71387 110.846 6.34473C110.828 5.97559 110.811 5.65625 110.793 5.38672L110.767 4.98242H112.48L112.498 6.38867C113.043 5.31055 113.846 4.77148 114.906 4.77148C115.24 4.77148 115.545 4.80664 115.82 4.87695L115.812 6.30957C115.466 6.21582 115.135 6.16895 114.818 6.16895C114.127 6.16895 113.57 6.41211 113.148 6.89844C112.727 7.37891 112.516 8.07324 112.516 8.98145V14H110.881ZM117.895 2.70605V1.20312H119.494V2.70605H117.895ZM117.886 14V4.98242H119.494V14H117.886ZM123.546 8.6123H128.723C128.664 7.78613 128.424 7.15039 128.002 6.70508C127.58 6.25977 127.018 6.03711 126.314 6.03711C125.576 6.03711 124.958 6.26562 124.46 6.72266C123.968 7.17969 123.663 7.80957 123.546 8.6123ZM126.517 14.1934C125.081 14.1934 123.941 13.7686 123.098 12.9189C122.254 12.0635 121.832 10.9297 121.832 9.51758C121.832 8.12891 122.236 6.98926 123.045 6.09863C123.859 5.20215 124.935 4.75391 126.271 4.75391C127.114 4.75391 127.835 4.9502 128.433 5.34277C129.036 5.73535 129.481 6.26855 129.769 6.94238C130.062 7.61621 130.208 8.39844 130.208 9.28906C130.208 9.40039 130.199 9.54395 130.182 9.71973H123.502C123.52 10.7275 123.81 11.5068 124.372 12.0576C124.935 12.6025 125.679 12.875 126.604 12.875C127.683 12.875 128.638 12.541 129.47 11.873L129.953 13.0684C128.986 13.8184 127.841 14.1934 126.517 14.1934ZM132.748 14V7.47852C132.748 7.08008 132.739 6.67285 132.722 6.25684C132.71 5.84082 132.695 5.52441 132.678 5.30762L132.651 4.98242H134.321L134.339 6.39746C134.649 5.88184 135.083 5.48047 135.64 5.19336C136.202 4.90039 136.794 4.75391 137.415 4.75391C138.552 4.75391 139.39 5.09961 139.929 5.79102C140.468 6.47656 140.737 7.51953 140.737 8.91992V14H139.12V8.92871C139.12 7.9502 138.974 7.22949 138.681 6.7666C138.388 6.30371 137.872 6.07227 137.134 6.07227C136.454 6.07227 135.836 6.30371 135.279 6.7666C134.723 7.22363 134.421 7.75098 134.374 8.34863V14H132.748ZM147.61 14.1934C146.216 14.1934 145.1 13.7598 144.262 12.8926C143.43 12.0195 143.014 10.9033 143.014 9.54395C143.014 8.12012 143.438 6.96582 144.288 6.08105C145.138 5.19629 146.257 4.75391 147.646 4.75391C148.905 4.75391 149.898 5.11133 150.625 5.82617L150.054 6.89844C149.427 6.35352 148.662 6.08105 147.76 6.08105C146.84 6.08105 146.096 6.38281 145.527 6.98633C144.965 7.58398 144.684 8.43359 144.684 9.53516C144.684 10.5547 144.956 11.3662 145.501 11.9697C146.052 12.5732 146.796 12.875 147.733 12.875C148.642 12.875 149.462 12.5938 150.194 12.0312L150.704 13.2002C149.849 13.8623 148.817 14.1934 147.61 14.1934ZM154.079 8.6123H159.256C159.197 7.78613 158.957 7.15039 158.535 6.70508C158.113 6.25977 157.551 6.03711 156.848 6.03711C156.109 6.03711 155.491 6.26562 154.993 6.72266C154.501 7.17969 154.196 7.80957 154.079 8.6123ZM157.05 14.1934C155.614 14.1934 154.475 13.7686 153.631 12.9189C152.787 12.0635 152.365 10.9297 152.365 9.51758C152.365 8.12891 152.77 6.98926 153.578 6.09863C154.393 5.20215 155.468 4.75391 156.804 4.75391C157.647 4.75391 158.368 4.9502 158.966 5.34277C159.569 5.73535 160.015 6.26855 160.302 6.94238C160.595 7.61621 160.741 8.39844 160.741 9.28906C160.741 9.40039 160.732 9.54395 160.715 9.71973H154.035C154.053 10.7275 154.343 11.5068 154.905 12.0576C155.468 12.6025 156.212 12.875 157.138 12.875C158.216 12.875 159.171 12.541 160.003 11.873L160.486 13.0684C159.52 13.8184 158.374 14.1934 157.05 14.1934ZM168.484 2.70605V1.20312H170.084V2.70605H168.484ZM168.476 14V4.98242H170.084V14H168.476ZM173.09 14V7.47852C173.09 7.08008 173.081 6.67285 173.063 6.25684C173.052 5.84082 173.037 5.52441 173.02 5.30762L172.993 4.98242H174.663L174.681 6.39746C174.991 5.88184 175.425 5.48047 175.981 5.19336C176.544 4.90039 177.136 4.75391 177.757 4.75391C178.894 4.75391 179.731 5.09961 180.271 5.79102C180.81 6.47656 181.079 7.51953 181.079 8.91992V14H179.462V8.92871C179.462 7.9502 179.315 7.22949 179.022 6.7666C178.729 6.30371 178.214 6.07227 177.476 6.07227C176.796 6.07227 176.178 6.30371 175.621 6.7666C175.064 7.22363 174.763 7.75098 174.716 8.34863V14H173.09ZM189.481 14V1.20312H192.628C195.101 1.20312 196.99 1.72754 198.297 2.77637C199.604 3.8252 200.257 5.43945 200.257 7.61914C200.257 9.6582 199.65 11.2314 198.438 12.3389C197.225 13.4463 195.479 14 193.199 14H189.481ZM191.16 12.585H193.287C194.998 12.585 196.29 12.1543 197.163 11.293C198.042 10.4258 198.481 9.20117 198.481 7.61914C198.481 5.91406 198.013 4.6543 197.075 3.83984C196.144 3.02539 194.714 2.61816 192.786 2.61816H191.16V12.585ZM203.843 8.6123H209.02C208.961 7.78613 208.721 7.15039 208.299 6.70508C207.877 6.25977 207.314 6.03711 206.611 6.03711C205.873 6.03711 205.255 6.26562 204.757 6.72266C204.265 7.17969 203.96 7.80957 203.843 8.6123ZM206.813 14.1934C205.378 14.1934 204.238 13.7686 203.395 12.9189C202.551 12.0635 202.129 10.9297 202.129 9.51758C202.129 8.12891 202.533 6.98926 203.342 6.09863C204.156 5.20215 205.231 4.75391 206.567 4.75391C207.411 4.75391 208.132 4.9502 208.729 5.34277C209.333 5.73535 209.778 6.26855 210.065 6.94238C210.358 7.61621 210.505 8.39844 210.505 9.28906C210.505 9.40039 210.496 9.54395 210.479 9.71973H203.799C203.816 10.7275 204.106 11.5068 204.669 12.0576C205.231 12.6025 205.976 12.875 206.901 12.875C207.979 12.875 208.935 12.541 209.767 11.873L210.25 13.0684C209.283 13.8184 208.138 14.1934 206.813 14.1934ZM213.045 14V0.939453H214.662V14H213.045ZM217.633 2.70605V1.20312H219.232V2.70605H217.633ZM217.624 14V4.98242H219.232V14H217.624ZM225.903 12.6113C226.817 12.6113 227.512 12.3154 227.986 11.7236C228.461 11.126 228.698 10.3262 228.698 9.32422C228.698 8.33398 228.461 7.5459 227.986 6.95996C227.518 6.36816 226.861 6.07227 226.018 6.07227C225.156 6.07227 224.479 6.38281 223.987 7.00391C223.495 7.625 223.249 8.43945 223.249 9.44727C223.249 10.4492 223.48 11.2285 223.943 11.7852C224.406 12.3359 225.06 12.6113 225.903 12.6113ZM225.701 17.6738C224.518 17.6738 223.407 17.4189 222.37 16.9092L222.625 15.5117C223.621 16.0801 224.626 16.3643 225.64 16.3643C226.601 16.3643 227.345 16.1064 227.872 15.5908C228.399 15.0752 228.663 14.2959 228.663 13.2529V12.3125C228.411 12.7637 228.045 13.1387 227.564 13.4375C227.09 13.7305 226.504 13.877 225.807 13.877C224.559 13.877 223.539 13.4814 222.748 12.6904C221.963 11.8936 221.57 10.8184 221.57 9.46484C221.57 8.54492 221.729 7.7334 222.045 7.03027C222.367 6.32715 222.851 5.77344 223.495 5.36914C224.14 4.95898 224.907 4.75391 225.798 4.75391C226.483 4.75391 227.066 4.90039 227.547 5.19336C228.027 5.48633 228.399 5.86133 228.663 6.31836L228.689 4.98242H230.359C230.295 5.95508 230.263 6.76367 230.263 7.4082V12.7695C230.263 13.4844 230.175 14.1348 229.999 14.7207C229.823 15.3066 229.554 15.8223 229.19 16.2676C228.833 16.7129 228.358 17.0586 227.767 17.3047C227.175 17.5508 226.486 17.6738 225.701 17.6738ZM233.286 14V0.939453H234.903V6.39746C235.173 5.90527 235.592 5.50977 236.16 5.21094C236.729 4.90625 237.332 4.75391 237.971 4.75391C238.533 4.75391 239.031 4.85352 239.465 5.05273C239.898 5.25195 240.247 5.52734 240.511 5.87891C240.774 6.22461 240.974 6.62598 241.108 7.08301C241.243 7.53418 241.311 8.02637 241.311 8.55957V14H239.685V8.60352C239.685 7.71875 239.532 7.07715 239.228 6.67871C238.923 6.27441 238.431 6.07227 237.751 6.07227C237.013 6.07227 236.354 6.32129 235.773 6.81934C235.193 7.31738 234.903 7.88867 234.903 8.5332V14H233.286ZM248.896 14H248.148C246.871 13.9883 245.995 13.7598 245.521 13.3145C245.052 12.8691 244.817 12.0576 244.817 10.8799V6.06348H243.086V4.98242H244.853V2.66211L246.435 2.19629V4.98242H248.878V6.06348H246.435V10.9678C246.435 11.29 246.455 11.5508 246.496 11.75C246.543 11.9492 246.613 12.1191 246.707 12.2598C246.801 12.3945 246.95 12.4941 247.155 12.5586C247.36 12.623 247.592 12.6699 247.85 12.6992C248.107 12.7227 248.456 12.7344 248.896 12.7344V14ZM256.472 14V0.939453H258.089V6.39746C258.358 5.90527 258.777 5.50977 259.346 5.21094C259.914 4.90625 260.518 4.75391 261.156 4.75391C261.719 4.75391 262.217 4.85352 262.65 5.05273C263.084 5.25195 263.433 5.52734 263.696 5.87891C263.96 6.22461 264.159 6.62598 264.294 7.08301C264.429 7.53418 264.496 8.02637 264.496 8.55957V14H262.87V8.60352C262.87 7.71875 262.718 7.07715 262.413 6.67871C262.108 6.27441 261.616 6.07227 260.937 6.07227C260.198 6.07227 259.539 6.32129 258.959 6.81934C258.379 7.31738 258.089 7.88867 258.089 8.5332V14H256.472ZM271.439 14.1934C269.98 14.1934 268.838 13.7598 268.012 12.8926C267.191 12.0254 266.781 10.8945 266.781 9.5C266.781 8.08203 267.194 6.93652 268.021 6.06348C268.853 5.19043 269.998 4.75391 271.457 4.75391C272.91 4.75391 274.041 5.19043 274.85 6.06348C275.658 6.93066 276.062 8.07617 276.062 9.5C276.062 10.8945 275.652 12.0254 274.832 12.8926C274.012 13.7598 272.881 14.1934 271.439 14.1934ZM271.439 12.875C272.389 12.875 273.112 12.5674 273.61 11.9521C274.114 11.3369 274.366 10.5195 274.366 9.5C274.366 8.46289 274.111 7.63379 273.602 7.0127C273.098 6.38574 272.374 6.07227 271.431 6.07227C270.481 6.07227 269.752 6.38574 269.242 7.0127C268.732 7.63379 268.478 8.46289 268.478 9.5C268.478 10.5195 268.729 11.3369 269.233 11.9521C269.743 12.5674 270.479 12.875 271.439 12.875ZM283.138 14H282.391C281.113 13.9883 280.237 13.7598 279.763 13.3145C279.294 12.8691 279.06 12.0576 279.06 10.8799V6.06348H277.328V4.98242H279.095V2.66211L280.677 2.19629V4.98242H283.12V6.06348H280.677V10.9678C280.677 11.29 280.697 11.5508 280.738 11.75C280.785 11.9492 280.855 12.1191 280.949 12.2598C281.043 12.3945 281.192 12.4941 281.397 12.5586C281.603 12.623 281.834 12.6699 282.092 12.6992C282.35 12.7227 282.698 12.7344 283.138 12.7344V14ZM286.618 8.6123H291.795C291.736 7.78613 291.496 7.15039 291.074 6.70508C290.652 6.25977 290.09 6.03711 289.387 6.03711C288.648 6.03711 288.03 6.26562 287.532 6.72266C287.04 7.17969 286.735 7.80957 286.618 8.6123ZM289.589 14.1934C288.153 14.1934 287.014 13.7686 286.17 12.9189C285.326 12.0635 284.904 10.9297 284.904 9.51758C284.904 8.12891 285.309 6.98926 286.117 6.09863C286.932 5.20215 288.007 4.75391 289.343 4.75391C290.187 4.75391 290.907 4.9502 291.505 5.34277C292.108 5.73535 292.554 6.26855 292.841 6.94238C293.134 7.61621 293.28 8.39844 293.28 9.28906C293.28 9.40039 293.271 9.54395 293.254 9.71973H286.574C286.592 10.7275 286.882 11.5068 287.444 12.0576C288.007 12.6025 288.751 12.875 289.677 12.875C290.755 12.875 291.71 12.541 292.542 11.873L293.025 13.0684C292.059 13.8184 290.913 14.1934 289.589 14.1934ZM295.82 14V0.939453H297.438V14H295.82ZM303.44 14.1934C302.661 14.1934 301.973 14.0762 301.375 13.8418C300.783 13.6074 300.323 13.3613 299.995 13.1035L300.443 11.8994C300.777 12.1455 301.202 12.3682 301.718 12.5674C302.239 12.7666 302.77 12.8662 303.309 12.8662C304.504 12.8662 305.102 12.4268 305.102 11.5479C305.102 11.1787 304.967 10.9033 304.697 10.7217C304.428 10.54 303.903 10.3174 303.124 10.0537L302.351 9.79004C302.052 9.68457 301.797 9.58496 301.586 9.49121C301.381 9.39746 301.173 9.28027 300.962 9.13965C300.751 8.99316 300.581 8.83789 300.452 8.67383C300.323 8.50391 300.218 8.30176 300.136 8.06738C300.06 7.82715 300.021 7.55762 300.021 7.25879C300.021 6.83105 300.109 6.45312 300.285 6.125C300.467 5.79102 300.713 5.53027 301.023 5.34277C301.334 5.14941 301.677 5.00586 302.052 4.91211C302.427 4.8125 302.831 4.7627 303.265 4.7627C304.454 4.7627 305.456 5.02344 306.271 5.54492L305.822 6.70508C305.031 6.2832 304.24 6.07227 303.449 6.07227C302.869 6.07227 302.421 6.17188 302.104 6.37109C301.788 6.57031 301.63 6.85156 301.63 7.21484C301.63 7.54297 301.724 7.78613 301.911 7.94434C302.104 8.09668 302.485 8.27539 303.054 8.48047C303.563 8.65039 303.865 8.75293 303.959 8.78809C304.328 8.91699 304.624 9.02832 304.847 9.12207C305.069 9.21582 305.307 9.3418 305.559 9.5C305.816 9.65234 306.013 9.81348 306.147 9.9834C306.288 10.1533 306.402 10.3672 306.49 10.625C306.584 10.877 306.631 11.1641 306.631 11.4863C306.631 11.9668 306.54 12.3887 306.358 12.752C306.177 13.1094 305.931 13.3906 305.62 13.5957C305.31 13.7949 304.973 13.9443 304.609 14.0439C304.246 14.1436 303.856 14.1934 303.44 14.1934ZM315.991 14L312.994 4.98242H314.717C314.805 5.27539 315.115 6.30371 315.648 8.06738C316.182 9.8252 316.592 11.1699 316.879 12.1016C317.189 11.1699 317.638 9.83398 318.224 8.09375C318.815 6.35352 319.167 5.31641 319.278 4.98242H320.852C320.957 5.31055 321.294 6.35059 321.862 8.10254C322.431 9.84863 322.867 11.1846 323.172 12.1104C323.447 11.1846 323.837 9.85156 324.341 8.11133C324.851 6.37109 325.155 5.32812 325.255 4.98242H326.828L323.831 14H322.311C322.234 13.7715 321.903 12.7725 321.317 11.0029C320.731 9.22754 320.286 7.87402 319.981 6.94238C319.665 7.87988 319.193 9.22754 318.566 10.9854C317.945 12.7373 317.591 13.7422 317.503 14H315.991ZM332.506 12.875C333.402 12.875 334.085 12.5645 334.554 11.9434C335.028 11.3164 335.266 10.4756 335.266 9.4209C335.266 8.4248 335.025 7.61914 334.545 7.00391C334.064 6.38281 333.379 6.07227 332.488 6.07227C331.551 6.07227 330.836 6.38281 330.344 7.00391C329.857 7.625 329.614 8.43945 329.614 9.44727C329.614 10.4609 329.86 11.2871 330.353 11.9258C330.845 12.5586 331.562 12.875 332.506 12.875ZM332.277 14.1934C331.604 14.1934 330.991 14.0674 330.44 13.8154C329.896 13.5635 329.444 13.2236 329.087 12.7959C328.735 12.3623 328.463 11.8643 328.27 11.3018C328.082 10.7334 327.988 10.1299 327.988 9.49121C327.988 8.6123 328.158 7.81836 328.498 7.10938C328.844 6.39453 329.345 5.82324 330.001 5.39551C330.657 4.96777 331.416 4.75391 332.277 4.75391C332.916 4.75391 333.496 4.90918 334.018 5.21973C334.545 5.53027 334.943 5.92871 335.213 6.41504V4.98242H336.812V14H335.195V12.4619C334.938 13.001 334.554 13.4258 334.044 13.7363C333.534 14.041 332.945 14.1934 332.277 14.1934ZM342.851 14.1934C342.071 14.1934 341.383 14.0762 340.785 13.8418C340.193 13.6074 339.733 13.3613 339.405 13.1035L339.854 11.8994C340.188 12.1455 340.612 12.3682 341.128 12.5674C341.649 12.7666 342.18 12.8662 342.719 12.8662C343.914 12.8662 344.512 12.4268 344.512 11.5479C344.512 11.1787 344.377 10.9033 344.107 10.7217C343.838 10.54 343.313 10.3174 342.534 10.0537L341.761 9.79004C341.462 9.68457 341.207 9.58496 340.996 9.49121C340.791 9.39746 340.583 9.28027 340.372 9.13965C340.161 8.99316 339.991 8.83789 339.862 8.67383C339.733 8.50391 339.628 8.30176 339.546 8.06738C339.47 7.82715 339.432 7.55762 339.432 7.25879C339.432 6.83105 339.52 6.45312 339.695 6.125C339.877 5.79102 340.123 5.53027 340.434 5.34277C340.744 5.14941 341.087 5.00586 341.462 4.91211C341.837 4.8125 342.241 4.7627 342.675 4.7627C343.864 4.7627 344.866 5.02344 345.681 5.54492L345.232 6.70508C344.441 6.2832 343.65 6.07227 342.859 6.07227C342.279 6.07227 341.831 6.17188 341.515 6.37109C341.198 6.57031 341.04 6.85156 341.04 7.21484C341.04 7.54297 341.134 7.78613 341.321 7.94434C341.515 8.09668 341.896 8.27539 342.464 8.48047C342.974 8.65039 343.275 8.75293 343.369 8.78809C343.738 8.91699 344.034 9.02832 344.257 9.12207C344.479 9.21582 344.717 9.3418 344.969 9.5C345.227 9.65234 345.423 9.81348 345.558 9.9834C345.698 10.1533 345.812 10.3672 345.9 10.625C345.994 10.877 346.041 11.1641 346.041 11.4863C346.041 11.9668 345.95 12.3887 345.769 12.752C345.587 13.1094 345.341 13.3906 345.03 13.5957C344.72 13.7949 344.383 13.9443 344.02 14.0439C343.656 14.1436 343.267 14.1934 342.851 14.1934ZM357.537 12.875C358.434 12.875 359.116 12.5645 359.585 11.9434C360.06 11.3164 360.297 10.4756 360.297 9.4209C360.297 8.4248 360.057 7.61914 359.576 7.00391C359.096 6.38281 358.41 6.07227 357.52 6.07227C356.582 6.07227 355.867 6.38281 355.375 7.00391C354.889 7.625 354.646 8.43945 354.646 9.44727C354.646 10.4609 354.892 11.2871 355.384 11.9258C355.876 12.5586 356.594 12.875 357.537 12.875ZM357.309 14.1934C356.635 14.1934 356.022 14.0674 355.472 13.8154C354.927 13.5635 354.476 13.2236 354.118 12.7959C353.767 12.3623 353.494 11.8643 353.301 11.3018C353.113 10.7334 353.02 10.1299 353.02 9.49121C353.02 8.6123 353.189 7.81836 353.529 7.10938C353.875 6.39453 354.376 5.82324 355.032 5.39551C355.688 4.96777 356.447 4.75391 357.309 4.75391C357.947 4.75391 358.527 4.90918 359.049 5.21973C359.576 5.53027 359.975 5.92871 360.244 6.41504V4.98242H361.844V14H360.227V12.4619C359.969 13.001 359.585 13.4258 359.075 13.7363C358.565 14.041 357.977 14.1934 357.309 14.1934ZM364.885 14V7.33789C364.885 7.0332 364.853 6.24805 364.788 4.98242H366.467L366.484 6.44141C366.725 5.91406 367.108 5.50098 367.636 5.20215C368.163 4.90332 368.74 4.75391 369.367 4.75391C370.012 4.75391 370.574 4.92383 371.055 5.26367C371.541 5.60352 371.893 6.08398 372.109 6.70508C372.438 6.0957 372.88 5.61816 373.437 5.27246C373.999 4.92676 374.632 4.75391 375.335 4.75391C376.36 4.75391 377.137 5.08203 377.664 5.73828C378.197 6.38867 378.464 7.30273 378.464 8.48047V14H376.847V8.6123C376.847 7.81543 376.712 7.19434 376.442 6.74902C376.173 6.29785 375.757 6.07227 375.194 6.07227C374.474 6.07227 373.853 6.33594 373.331 6.86328C372.815 7.38477 372.54 8.0293 372.505 8.79688V14H370.888V8.47168C370.888 7.75098 370.747 7.1709 370.466 6.73145C370.185 6.29199 369.736 6.07227 369.121 6.07227C368.412 6.07227 367.812 6.30957 367.319 6.78418C366.827 7.25879 366.558 7.83301 366.511 8.50684V14H364.885ZM385.275 12.875C386.172 12.875 386.854 12.5645 387.323 11.9434C387.798 11.3164 388.035 10.4756 388.035 9.4209C388.035 8.4248 387.795 7.61914 387.314 7.00391C386.834 6.38281 386.148 6.07227 385.258 6.07227C384.32 6.07227 383.605 6.38281 383.113 7.00391C382.627 7.625 382.384 8.43945 382.384 9.44727C382.384 10.4609 382.63 11.2871 383.122 11.9258C383.614 12.5586 384.332 12.875 385.275 12.875ZM385.047 14.1934C384.373 14.1934 383.761 14.0674 383.21 13.8154C382.665 13.5635 382.214 13.2236 381.856 12.7959C381.505 12.3623 381.232 11.8643 381.039 11.3018C380.852 10.7334 380.758 10.1299 380.758 9.49121C380.758 8.6123 380.928 7.81836 381.268 7.10938C381.613 6.39453 382.114 5.82324 382.771 5.39551C383.427 4.96777 384.186 4.75391 385.047 4.75391C385.686 4.75391 386.266 4.90918 386.787 5.21973C387.314 5.53027 387.713 5.92871 387.982 6.41504V4.98242H389.582V14H387.965V12.4619C387.707 13.001 387.323 13.4258 386.813 13.7363C386.304 14.041 385.715 14.1934 385.047 14.1934ZM391.981 14V13.1211L396.692 6.29199H392.122V4.98242H398.775V5.84375L394.073 12.6992H398.916V14H391.981ZM401.113 2.70605V1.20312H402.713V2.70605H401.113ZM401.104 14V4.98242H402.713V14H401.104ZM405.719 14V7.47852C405.719 7.08008 405.71 6.67285 405.692 6.25684C405.681 5.84082 405.666 5.52441 405.648 5.30762L405.622 4.98242H407.292L407.31 6.39746C407.62 5.88184 408.054 5.48047 408.61 5.19336C409.173 4.90039 409.765 4.75391 410.386 4.75391C411.522 4.75391 412.36 5.09961 412.899 5.79102C413.438 6.47656 413.708 7.51953 413.708 8.91992V14H412.091V8.92871C412.091 7.9502 411.944 7.22949 411.651 6.7666C411.358 6.30371 410.843 6.07227 410.104 6.07227C409.425 6.07227 408.807 6.30371 408.25 6.7666C407.693 7.22363 407.392 7.75098 407.345 8.34863V14H405.719ZM420.317 12.6113C421.231 12.6113 421.926 12.3154 422.4 11.7236C422.875 11.126 423.112 10.3262 423.112 9.32422C423.112 8.33398 422.875 7.5459 422.4 6.95996C421.932 6.36816 421.275 6.07227 420.432 6.07227C419.57 6.07227 418.894 6.38281 418.401 7.00391C417.909 7.625 417.663 8.43945 417.663 9.44727C417.663 10.4492 417.895 11.2285 418.357 11.7852C418.82 12.3359 419.474 12.6113 420.317 12.6113ZM420.115 17.6738C418.932 17.6738 417.821 17.4189 416.784 16.9092L417.039 15.5117C418.035 16.0801 419.04 16.3643 420.054 16.3643C421.015 16.3643 421.759 16.1064 422.286 15.5908C422.813 15.0752 423.077 14.2959 423.077 13.2529V12.3125C422.825 12.7637 422.459 13.1387 421.979 13.4375C421.504 13.7305 420.918 13.877 420.221 13.877C418.973 13.877 417.953 13.4814 417.162 12.6904C416.377 11.8936 415.984 10.8184 415.984 9.46484C415.984 8.54492 416.143 7.7334 416.459 7.03027C416.781 6.32715 417.265 5.77344 417.909 5.36914C418.554 4.95898 419.321 4.75391 420.212 4.75391C420.897 4.75391 421.48 4.90039 421.961 5.19336C422.441 5.48633 422.813 5.86133 423.077 6.31836L423.104 4.98242H424.773C424.709 5.95508 424.677 6.76367 424.677 7.4082V12.7695C424.677 13.4844 424.589 14.1348 424.413 14.7207C424.237 15.3066 423.968 15.8223 423.604 16.2676C423.247 16.7129 422.772 17.0586 422.181 17.3047C421.589 17.5508 420.9 17.6738 420.115 17.6738ZM427.568 14V12.0225H429.634V14H427.568ZM438.036 14V1.20312H445.419V2.61816H439.715V6.64355H445.023V8.06738H439.715V14H438.036ZM447.66 14V7.19727C447.66 6.99805 447.648 6.71387 447.625 6.34473C447.607 5.97559 447.59 5.65625 447.572 5.38672L447.546 4.98242H449.26L449.277 6.38867C449.822 5.31055 450.625 4.77148 451.686 4.77148C452.02 4.77148 452.324 4.80664 452.6 4.87695L452.591 6.30957C452.245 6.21582 451.914 6.16895 451.598 6.16895C450.906 6.16895 450.35 6.41211 449.928 6.89844C449.506 7.37891 449.295 8.07324 449.295 8.98145V14H447.66ZM458.699 14.1934C457.24 14.1934 456.098 13.7598 455.271 12.8926C454.451 12.0254 454.041 10.8945 454.041 9.5C454.041 8.08203 454.454 6.93652 455.28 6.06348C456.112 5.19043 457.258 4.75391 458.717 4.75391C460.17 4.75391 461.301 5.19043 462.109 6.06348C462.918 6.93066 463.322 8.07617 463.322 9.5C463.322 10.8945 462.912 12.0254 462.092 12.8926C461.271 13.7598 460.141 14.1934 458.699 14.1934ZM458.699 12.875C459.648 12.875 460.372 12.5674 460.87 11.9521C461.374 11.3369 461.626 10.5195 461.626 9.5C461.626 8.46289 461.371 7.63379 460.861 7.0127C460.357 6.38574 459.634 6.07227 458.69 6.07227C457.741 6.07227 457.012 6.38574 456.502 7.0127C455.992 7.63379 455.737 8.46289 455.737 9.5C455.737 10.5195 455.989 11.3369 456.493 11.9521C457.003 12.5674 457.738 12.875 458.699 12.875ZM465.766 14V7.33789C465.766 7.0332 465.733 6.24805 465.669 4.98242H467.348L467.365 6.44141C467.605 5.91406 467.989 5.50098 468.517 5.20215C469.044 4.90332 469.621 4.75391 470.248 4.75391C470.893 4.75391 471.455 4.92383 471.936 5.26367C472.422 5.60352 472.773 6.08398 472.99 6.70508C473.318 6.0957 473.761 5.61816 474.317 5.27246C474.88 4.92676 475.513 4.75391 476.216 4.75391C477.241 4.75391 478.018 5.08203 478.545 5.73828C479.078 6.38867 479.345 7.30273 479.345 8.48047V14H477.728V8.6123C477.728 7.81543 477.593 7.19434 477.323 6.74902C477.054 6.29785 476.638 6.07227 476.075 6.07227C475.354 6.07227 474.733 6.33594 474.212 6.86328C473.696 7.38477 473.421 8.0293 473.386 8.79688V14H471.769V8.47168C471.769 7.75098 471.628 7.1709 471.347 6.73145C471.065 6.29199 470.617 6.07227 470.002 6.07227C469.293 6.07227 468.692 6.30957 468.2 6.78418C467.708 7.25879 467.438 7.83301 467.392 8.50684V14H465.766ZM492.177 14H491.43C490.152 13.9883 489.276 13.7598 488.802 13.3145C488.333 12.8691 488.099 12.0576 488.099 10.8799V6.06348H486.367V4.98242H488.134V2.66211L489.716 2.19629V4.98242H492.159V6.06348H489.716V10.9678C489.716 11.29 489.736 11.5508 489.777 11.75C489.824 11.9492 489.895 12.1191 489.988 12.2598C490.082 12.3945 490.231 12.4941 490.437 12.5586C490.642 12.623 490.873 12.6699 491.131 12.6992C491.389 12.7227 491.737 12.7344 492.177 12.7344V14ZM494.515 14V0.939453H496.132V6.39746C496.401 5.90527 496.82 5.50977 497.389 5.21094C497.957 4.90625 498.561 4.75391 499.199 4.75391C499.762 4.75391 500.26 4.85352 500.693 5.05273C501.127 5.25195 501.476 5.52734 501.739 5.87891C502.003 6.22461 502.202 6.62598 502.337 7.08301C502.472 7.53418 502.539 8.02637 502.539 8.55957V14H500.913V8.60352C500.913 7.71875 500.761 7.07715 500.456 6.67871C500.151 6.27441 499.659 6.07227 498.979 6.07227C498.241 6.07227 497.582 6.32129 497.002 6.81934C496.422 7.31738 496.132 7.88867 496.132 8.5332V14H494.515ZM506.538 8.6123H511.715C511.656 7.78613 511.416 7.15039 510.994 6.70508C510.572 6.25977 510.01 6.03711 509.307 6.03711C508.568 6.03711 507.95 6.26562 507.452 6.72266C506.96 7.17969 506.655 7.80957 506.538 8.6123ZM509.509 14.1934C508.073 14.1934 506.934 13.7686 506.09 12.9189C505.246 12.0635 504.824 10.9297 504.824 9.51758C504.824 8.12891 505.229 6.98926 506.037 6.09863C506.852 5.20215 507.927 4.75391 509.263 4.75391C510.106 4.75391 510.827 4.9502 511.425 5.34277C512.028 5.73535 512.474 6.26855 512.761 6.94238C513.054 7.61621 513.2 8.39844 513.2 9.28906C513.2 9.40039 513.191 9.54395 513.174 9.71973H506.494C506.512 10.7275 506.802 11.5068 507.364 12.0576C507.927 12.6025 508.671 12.875 509.597 12.875C510.675 12.875 511.63 12.541 512.462 11.873L512.945 13.0684C511.979 13.8184 510.833 14.1934 509.509 14.1934ZM2.03711 35.6123H7.21387C7.15527 34.7861 6.91504 34.1504 6.49316 33.7051C6.07129 33.2598 5.50879 33.0371 4.80566 33.0371C4.06738 33.0371 3.44922 33.2656 2.95117 33.7227C2.45898 34.1797 2.1543 34.8096 2.03711 35.6123ZM5.00781 41.1934C3.57227 41.1934 2.43262 40.7686 1.58887 39.9189C0.745117 39.0635 0.323242 37.9297 0.323242 36.5176C0.323242 35.1289 0.727539 33.9893 1.53613 33.0986C2.35059 32.2021 3.42578 31.7539 4.76172 31.7539C5.60547 31.7539 6.32617 31.9502 6.92383 32.3428C7.52734 32.7354 7.97266 33.2686 8.25977 33.9424C8.55273 34.6162 8.69922 35.3984 8.69922 36.2891C8.69922 36.4004 8.69043 36.5439 8.67285 36.7197H1.99316C2.01074 37.7275 2.30078 38.5068 2.86328 39.0576C3.42578 39.6025 4.16992 39.875 5.0957 39.875C6.17383 39.875 7.12891 39.541 7.96094 38.873L8.44434 40.0684C7.47754 40.8184 6.33203 41.1934 5.00781 41.1934ZM11.2393 41V34.4785C11.2393 34.0801 11.2305 33.6729 11.2129 33.2568C11.2012 32.8408 11.1865 32.5244 11.1689 32.3076L11.1426 31.9824H12.8125L12.8301 33.3975C13.1406 32.8818 13.5742 32.4805 14.1309 32.1934C14.6934 31.9004 15.2852 31.7539 15.9062 31.7539C17.043 31.7539 17.8809 32.0996 18.4199 32.791C18.959 33.4766 19.2285 34.5195 19.2285 35.9199V41H17.6113V35.9287C17.6113 34.9502 17.4648 34.2295 17.1719 33.7666C16.8789 33.3037 16.3633 33.0723 15.625 33.0723C14.9453 33.0723 14.3271 33.3037 13.7705 33.7666C13.2139 34.2236 12.9121 34.751 12.8652 35.3486V41H11.2393ZM24.4932 41L20.7139 31.9824H22.4805C22.6914 32.5332 22.9902 33.3037 23.377 34.2939C23.7695 35.2842 24.124 36.1895 24.4404 37.0098C24.7627 37.8242 25.0586 38.5977 25.3281 39.3301C25.5801 38.5859 25.8584 37.8066 26.1631 36.9922C26.4736 36.1719 26.8193 35.2695 27.2002 34.2852C27.5869 33.3008 27.8828 32.5332 28.0879 31.9824H29.8193L26.04 41H24.4932ZM31.4189 29.7061V28.2031H33.0186V29.7061H31.4189ZM31.4102 41V31.9824H33.0186V41H31.4102ZM36.042 41V34.1973C36.042 33.998 36.0303 33.7139 36.0068 33.3447C35.9893 32.9756 35.9717 32.6562 35.9541 32.3867L35.9277 31.9824H37.6416L37.6592 33.3887C38.2041 32.3105 39.0068 31.7715 40.0674 31.7715C40.4014 31.7715 40.7061 31.8066 40.9814 31.877L40.9727 33.3096C40.627 33.2158 40.2959 33.1689 39.9795 33.1689C39.2881 33.1689 38.7314 33.4121 38.3096 33.8984C37.8877 34.3789 37.6768 35.0732 37.6768 35.9814V41H36.042ZM47.0811 41.1934C45.6221 41.1934 44.4795 40.7598 43.6533 39.8926C42.833 39.0254 42.4229 37.8945 42.4229 36.5C42.4229 35.082 42.8359 33.9365 43.6621 33.0635C44.4941 32.1904 45.6396 31.7539 47.0986 31.7539C48.5518 31.7539 49.6826 32.1904 50.4912 33.0635C51.2998 33.9307 51.7041 35.0762 51.7041 36.5C51.7041 37.8945 51.2939 39.0254 50.4736 39.8926C49.6533 40.7598 48.5225 41.1934 47.0811 41.1934ZM47.0811 39.875C48.0303 39.875 48.7539 39.5674 49.252 38.9521C49.7559 38.3369 50.0078 37.5195 50.0078 36.5C50.0078 35.4629 49.7529 34.6338 49.2432 34.0127C48.7393 33.3857 48.0156 33.0723 47.0723 33.0723C46.123 33.0723 45.3936 33.3857 44.8838 34.0127C44.374 34.6338 44.1191 35.4629 44.1191 36.5C44.1191 37.5195 44.3711 38.3369 44.875 38.9521C45.3848 39.5674 46.1201 39.875 47.0811 39.875ZM54.1475 41V34.4785C54.1475 34.0801 54.1387 33.6729 54.1211 33.2568C54.1094 32.8408 54.0947 32.5244 54.0771 32.3076L54.0508 31.9824H55.7207L55.7383 33.3975C56.0488 32.8818 56.4824 32.4805 57.0391 32.1934C57.6016 31.9004 58.1934 31.7539 58.8145 31.7539C59.9512 31.7539 60.7891 32.0996 61.3281 32.791C61.8672 33.4766 62.1367 34.5195 62.1367 35.9199V41H60.5195V35.9287C60.5195 34.9502 60.373 34.2295 60.0801 33.7666C59.7871 33.3037 59.2715 33.0723 58.5332 33.0723C57.8535 33.0723 57.2354 33.3037 56.6787 33.7666C56.1221 34.2236 55.8203 34.751 55.7734 35.3486V41H54.1475ZM65.0811 41V34.3379C65.0811 34.0332 65.0488 33.248 64.9844 31.9824H66.6631L66.6807 33.4414C66.9209 32.9141 67.3047 32.501 67.832 32.2021C68.3594 31.9033 68.9365 31.7539 69.5635 31.7539C70.208 31.7539 70.7705 31.9238 71.251 32.2637C71.7373 32.6035 72.0889 33.084 72.3057 33.7051C72.6338 33.0957 73.0762 32.6182 73.6328 32.2725C74.1953 31.9268 74.8281 31.7539 75.5312 31.7539C76.5566 31.7539 77.333 32.082 77.8604 32.7383C78.3936 33.3887 78.6602 34.3027 78.6602 35.4805V41H77.043V35.6123C77.043 34.8154 76.9082 34.1943 76.6387 33.749C76.3691 33.2979 75.9531 33.0723 75.3906 33.0723C74.6699 33.0723 74.0488 33.3359 73.5273 33.8633C73.0117 34.3848 72.7363 35.0293 72.7012 35.7969V41H71.084V35.4717C71.084 34.751 70.9434 34.1709 70.6621 33.7314C70.3809 33.292 69.9326 33.0723 69.3174 33.0723C68.6084 33.0723 68.0078 33.3096 67.5156 33.7842C67.0234 34.2588 66.7539 34.833 66.707 35.5068V41H65.0811ZM82.668 35.6123H87.8447C87.7861 34.7861 87.5459 34.1504 87.124 33.7051C86.7021 33.2598 86.1396 33.0371 85.4365 33.0371C84.6982 33.0371 84.0801 33.2656 83.582 33.7227C83.0898 34.1797 82.7852 34.8096 82.668 35.6123ZM85.6387 41.1934C84.2031 41.1934 83.0635 40.7686 82.2197 39.9189C81.376 39.0635 80.9541 37.9297 80.9541 36.5176C80.9541 35.1289 81.3584 33.9893 82.167 33.0986C82.9814 32.2021 84.0566 31.7539 85.3926 31.7539C86.2363 31.7539 86.957 31.9502 87.5547 32.3428C88.1582 32.7354 88.6035 33.2686 88.8906 33.9424C89.1836 34.6162 89.3301 35.3984 89.3301 36.2891C89.3301 36.4004 89.3213 36.5439 89.3037 36.7197H82.624C82.6416 37.7275 82.9316 38.5068 83.4941 39.0576C84.0566 39.6025 84.8008 39.875 85.7266 39.875C86.8047 39.875 87.7598 39.541 88.5918 38.873L89.0752 40.0684C88.1084 40.8184 86.9629 41.1934 85.6387 41.1934ZM91.8701 41V34.4785C91.8701 34.0801 91.8613 33.6729 91.8438 33.2568C91.832 32.8408 91.8174 32.5244 91.7998 32.3076L91.7734 31.9824H93.4434L93.4609 33.3975C93.7715 32.8818 94.2051 32.4805 94.7617 32.1934C95.3242 31.9004 95.916 31.7539 96.5371 31.7539C97.6738 31.7539 98.5117 32.0996 99.0508 32.791C99.5898 33.4766 99.8594 34.5195 99.8594 35.9199V41H98.2422V35.9287C98.2422 34.9502 98.0957 34.2295 97.8027 33.7666C97.5098 33.3037 96.9941 33.0723 96.2559 33.0723C95.5762 33.0723 94.958 33.3037 94.4014 33.7666C93.8447 34.2236 93.543 34.751 93.4961 35.3486V41H91.8701ZM107.436 41H106.688C105.411 40.9883 104.535 40.7598 104.061 40.3145C103.592 39.8691 103.357 39.0576 103.357 37.8799V33.0635H101.626V31.9824H103.393V29.6621L104.975 29.1963V31.9824H107.418V33.0635H104.975V37.9678C104.975 38.29 104.995 38.5508 105.036 38.75C105.083 38.9492 105.153 39.1191 105.247 39.2598C105.341 39.3945 105.49 39.4941 105.695 39.5586C105.9 39.623 106.132 39.6699 106.39 39.6992C106.647 39.7227 106.996 39.7344 107.436 39.7344V41ZM119.74 41H118.993C117.716 40.9883 116.84 40.7598 116.365 40.3145C115.896 39.8691 115.662 39.0576 115.662 37.8799V33.0635H113.931V31.9824H115.697V29.6621L117.279 29.1963V31.9824H119.723V33.0635H117.279V37.9678C117.279 38.29 117.3 38.5508 117.341 38.75C117.388 38.9492 117.458 39.1191 117.552 39.2598C117.646 39.3945 117.795 39.4941 118 39.5586C118.205 39.623 118.437 39.6699 118.694 39.6992C118.952 39.7227 119.301 39.7344 119.74 39.7344V41ZM126.165 41.1934C124.706 41.1934 123.563 40.7598 122.737 39.8926C121.917 39.0254 121.507 37.8945 121.507 36.5C121.507 35.082 121.92 33.9365 122.746 33.0635C123.578 32.1904 124.724 31.7539 126.183 31.7539C127.636 31.7539 128.767 32.1904 129.575 33.0635C130.384 33.9307 130.788 35.0762 130.788 36.5C130.788 37.8945 130.378 39.0254 129.558 39.8926C128.737 40.7598 127.606 41.1934 126.165 41.1934ZM126.165 39.875C127.114 39.875 127.838 39.5674 128.336 38.9521C128.84 38.3369 129.092 37.5195 129.092 36.5C129.092 35.4629 128.837 34.6338 128.327 34.0127C127.823 33.3857 127.1 33.0723 126.156 33.0723C125.207 33.0723 124.478 33.3857 123.968 34.0127C123.458 34.6338 123.203 35.4629 123.203 36.5C123.203 37.5195 123.455 38.3369 123.959 38.9521C124.469 39.5674 125.204 39.875 126.165 39.875ZM143.102 41H142.354C141.077 40.9883 140.201 40.7598 139.727 40.3145C139.258 39.8691 139.023 39.0576 139.023 37.8799V33.0635H137.292V31.9824H139.059V29.6621L140.641 29.1963V31.9824H143.084V33.0635H140.641V37.9678C140.641 38.29 140.661 38.5508 140.702 38.75C140.749 38.9492 140.819 39.1191 140.913 39.2598C141.007 39.3945 141.156 39.4941 141.361 39.5586C141.566 39.623 141.798 39.6699 142.056 39.6992C142.313 39.7227 142.662 39.7344 143.102 39.7344V41ZM145.439 41V27.9395H147.057V33.3975C147.326 32.9053 147.745 32.5098 148.313 32.2109C148.882 31.9062 149.485 31.7539 150.124 31.7539C150.687 31.7539 151.185 31.8535 151.618 32.0527C152.052 32.252 152.4 32.5273 152.664 32.8789C152.928 33.2246 153.127 33.626 153.262 34.083C153.396 34.5342 153.464 35.0264 153.464 35.5596V41H151.838V35.6035C151.838 34.7188 151.686 34.0771 151.381 33.6787C151.076 33.2744 150.584 33.0723 149.904 33.0723C149.166 33.0723 148.507 33.3213 147.927 33.8193C147.347 34.3174 147.057 34.8887 147.057 35.5332V41H145.439ZM157.463 35.6123H162.64C162.581 34.7861 162.341 34.1504 161.919 33.7051C161.497 33.2598 160.935 33.0371 160.231 33.0371C159.493 33.0371 158.875 33.2656 158.377 33.7227C157.885 34.1797 157.58 34.8096 157.463 35.6123ZM160.434 41.1934C158.998 41.1934 157.858 40.7686 157.015 39.9189C156.171 39.0635 155.749 37.9297 155.749 36.5176C155.749 35.1289 156.153 33.9893 156.962 33.0986C157.776 32.2021 158.852 31.7539 160.188 31.7539C161.031 31.7539 161.752 31.9502 162.35 32.3428C162.953 32.7354 163.398 33.2686 163.686 33.9424C163.979 34.6162 164.125 35.3984 164.125 36.2891C164.125 36.4004 164.116 36.5439 164.099 36.7197H157.419C157.437 37.7275 157.727 38.5068 158.289 39.0576C158.852 39.6025 159.596 39.875 160.521 39.875C161.6 39.875 162.555 39.541 163.387 38.873L163.87 40.0684C162.903 40.8184 161.758 41.1934 160.434 41.1934ZM171.903 41V34.3379C171.903 34.0332 171.871 33.248 171.807 31.9824H173.485L173.503 33.4414C173.743 32.9141 174.127 32.501 174.654 32.2021C175.182 31.9033 175.759 31.7539 176.386 31.7539C177.03 31.7539 177.593 31.9238 178.073 32.2637C178.56 32.6035 178.911 33.084 179.128 33.7051C179.456 33.0957 179.898 32.6182 180.455 32.2725C181.018 31.9268 181.65 31.7539 182.354 31.7539C183.379 31.7539 184.155 32.082 184.683 32.7383C185.216 33.3887 185.482 34.3027 185.482 35.4805V41H183.865V35.6123C183.865 34.8154 183.73 34.1943 183.461 33.749C183.191 33.2979 182.775 33.0723 182.213 33.0723C181.492 33.0723 180.871 33.3359 180.35 33.8633C179.834 34.3848 179.559 35.0293 179.523 35.7969V41H177.906V35.4717C177.906 34.751 177.766 34.1709 177.484 33.7314C177.203 33.292 176.755 33.0723 176.14 33.0723C175.431 33.0723 174.83 33.3096 174.338 33.7842C173.846 34.2588 173.576 34.833 173.529 35.5068V41H171.903ZM189.49 35.6123H194.667C194.608 34.7861 194.368 34.1504 193.946 33.7051C193.524 33.2598 192.962 33.0371 192.259 33.0371C191.521 33.0371 190.902 33.2656 190.404 33.7227C189.912 34.1797 189.607 34.8096 189.49 35.6123ZM192.461 41.1934C191.025 41.1934 189.886 40.7686 189.042 39.9189C188.198 39.0635 187.776 37.9297 187.776 36.5176C187.776 35.1289 188.181 33.9893 188.989 33.0986C189.804 32.2021 190.879 31.7539 192.215 31.7539C193.059 31.7539 193.779 31.9502 194.377 32.3428C194.98 32.7354 195.426 33.2686 195.713 33.9424C196.006 34.6162 196.152 35.3984 196.152 36.2891C196.152 36.4004 196.144 36.5439 196.126 36.7197H189.446C189.464 37.7275 189.754 38.5068 190.316 39.0576C190.879 39.6025 191.623 39.875 192.549 39.875C193.627 39.875 194.582 39.541 195.414 38.873L195.897 40.0684C194.931 40.8184 193.785 41.1934 192.461 41.1934ZM202.542 39.875C203.438 39.875 204.121 39.5645 204.59 38.9434C205.064 38.3164 205.302 37.4756 205.302 36.4209C205.302 35.4248 205.062 34.6191 204.581 34.0039C204.101 33.3828 203.415 33.0723 202.524 33.0723C201.587 33.0723 200.872 33.3828 200.38 34.0039C199.894 34.625 199.65 35.4395 199.65 36.4473C199.65 37.4609 199.896 38.2871 200.389 38.9258C200.881 39.5586 201.599 39.875 202.542 39.875ZM202.313 41.1934C201.64 41.1934 201.027 41.0674 200.477 40.8154C199.932 40.5635 199.48 40.2236 199.123 39.7959C198.771 39.3623 198.499 38.8643 198.306 38.3018C198.118 37.7334 198.024 37.1299 198.024 36.4912C198.024 35.6123 198.194 34.8184 198.534 34.1094C198.88 33.3945 199.381 32.8232 200.037 32.3955C200.693 31.9678 201.452 31.7539 202.313 31.7539C202.952 31.7539 203.532 31.9092 204.054 32.2197C204.581 32.5303 204.979 32.9287 205.249 33.415V31.9824H206.849V41H205.231V39.4619C204.974 40.001 204.59 40.4258 204.08 40.7363C203.57 41.041 202.981 41.1934 202.313 41.1934ZM209.89 41V27.9395H211.507V41H209.89ZM217.51 41.1934C216.73 41.1934 216.042 41.0762 215.444 40.8418C214.853 40.6074 214.393 40.3613 214.064 40.1035L214.513 38.8994C214.847 39.1455 215.271 39.3682 215.787 39.5674C216.309 39.7666 216.839 39.8662 217.378 39.8662C218.573 39.8662 219.171 39.4268 219.171 38.5479C219.171 38.1787 219.036 37.9033 218.767 37.7217C218.497 37.54 217.973 37.3174 217.193 37.0537L216.42 36.79C216.121 36.6846 215.866 36.585 215.655 36.4912C215.45 36.3975 215.242 36.2803 215.031 36.1396C214.82 35.9932 214.65 35.8379 214.521 35.6738C214.393 35.5039 214.287 35.3018 214.205 35.0674C214.129 34.8271 214.091 34.5576 214.091 34.2588C214.091 33.8311 214.179 33.4531 214.354 33.125C214.536 32.791 214.782 32.5303 215.093 32.3428C215.403 32.1494 215.746 32.0059 216.121 31.9121C216.496 31.8125 216.9 31.7627 217.334 31.7627C218.523 31.7627 219.525 32.0234 220.34 32.5449L219.892 33.7051C219.101 33.2832 218.31 33.0723 217.519 33.0723C216.938 33.0723 216.49 33.1719 216.174 33.3711C215.857 33.5703 215.699 33.8516 215.699 34.2148C215.699 34.543 215.793 34.7861 215.98 34.9443C216.174 35.0967 216.555 35.2754 217.123 35.4805C217.633 35.6504 217.935 35.7529 218.028 35.7881C218.397 35.917 218.693 36.0283 218.916 36.1221C219.139 36.2158 219.376 36.3418 219.628 36.5C219.886 36.6523 220.082 36.8135 220.217 36.9834C220.357 37.1533 220.472 37.3672 220.56 37.625C220.653 37.877 220.7 38.1641 220.7 38.4863C220.7 38.9668 220.609 39.3887 220.428 39.752C220.246 40.1094 220 40.3906 219.689 40.5957C219.379 40.7949 219.042 40.9443 218.679 41.0439C218.315 41.1436 217.926 41.1934 217.51 41.1934ZM222.186 43.3291L223.135 39.0488H224.972L223.504 43.3291H222.186ZM232.601 29.7061V28.2031H234.2V29.7061H232.601ZM232.592 41V31.9824H234.2V41H232.592ZM241.838 41H241.091C239.813 40.9883 238.938 40.7598 238.463 40.3145C237.994 39.8691 237.76 39.0576 237.76 37.8799V33.0635H236.028V31.9824H237.795V29.6621L239.377 29.1963V31.9824H241.82V33.0635H239.377V37.9678C239.377 38.29 239.397 38.5508 239.438 38.75C239.485 38.9492 239.556 39.1191 239.649 39.2598C239.743 39.3945 239.893 39.4941 240.098 39.5586C240.303 39.623 240.534 39.6699 240.792 39.6992C241.05 39.7227 241.398 39.7344 241.838 39.7344V41ZM249.511 41V34.3379C249.511 34.0332 249.479 33.248 249.414 31.9824H251.093L251.11 33.4414C251.351 32.9141 251.734 32.501 252.262 32.2021C252.789 31.9033 253.366 31.7539 253.993 31.7539C254.638 31.7539 255.2 31.9238 255.681 32.2637C256.167 32.6035 256.519 33.084 256.735 33.7051C257.063 33.0957 257.506 32.6182 258.062 32.2725C258.625 31.9268 259.258 31.7539 259.961 31.7539C260.986 31.7539 261.763 32.082 262.29 32.7383C262.823 33.3887 263.09 34.3027 263.09 35.4805V41H261.473V35.6123C261.473 34.8154 261.338 34.1943 261.068 33.749C260.799 33.2979 260.383 33.0723 259.82 33.0723C259.1 33.0723 258.479 33.3359 257.957 33.8633C257.441 34.3848 257.166 35.0293 257.131 35.7969V41H255.514V35.4717C255.514 34.751 255.373 34.1709 255.092 33.7314C254.811 33.292 254.362 33.0723 253.747 33.0723C253.038 33.0723 252.438 33.3096 251.945 33.7842C251.453 34.2588 251.184 34.833 251.137 35.5068V41H249.511ZM269.901 39.875C270.798 39.875 271.48 39.5645 271.949 38.9434C272.424 38.3164 272.661 37.4756 272.661 36.4209C272.661 35.4248 272.421 34.6191 271.94 34.0039C271.46 33.3828 270.774 33.0723 269.884 33.0723C268.946 33.0723 268.231 33.3828 267.739 34.0039C267.253 34.625 267.01 35.4395 267.01 36.4473C267.01 37.4609 267.256 38.2871 267.748 38.9258C268.24 39.5586 268.958 39.875 269.901 39.875ZM269.673 41.1934C268.999 41.1934 268.387 41.0674 267.836 40.8154C267.291 40.5635 266.84 40.2236 266.482 39.7959C266.131 39.3623 265.858 38.8643 265.665 38.3018C265.478 37.7334 265.384 37.1299 265.384 36.4912C265.384 35.6123 265.554 34.8184 265.894 34.1094C266.239 33.3945 266.74 32.8232 267.396 32.3955C268.053 31.9678 268.812 31.7539 269.673 31.7539C270.312 31.7539 270.892 31.9092 271.413 32.2197C271.94 32.5303 272.339 32.9287 272.608 33.415V31.9824H274.208V41H272.591V39.4619C272.333 40.001 271.949 40.4258 271.439 40.7363C270.93 41.041 270.341 41.1934 269.673 41.1934ZM280.94 39.875C281.825 39.875 282.508 39.5615 282.988 38.9346C283.469 38.3076 283.709 37.4668 283.709 36.4121C283.709 35.4219 283.466 34.6191 282.979 34.0039C282.493 33.3828 281.822 33.0723 280.967 33.0723C280.111 33.0723 279.446 33.3857 278.972 34.0127C278.497 34.6338 278.26 35.457 278.26 36.4824C278.26 37.502 278.491 38.3223 278.954 38.9434C279.417 39.5645 280.079 39.875 280.94 39.875ZM280.703 41.1934C279.496 41.1934 278.506 40.7686 277.732 39.9189C276.965 39.0635 276.581 37.9297 276.581 36.5176C276.581 35.5918 276.745 34.7744 277.073 34.0654C277.401 33.3506 277.885 32.7881 278.523 32.3779C279.168 31.9619 279.924 31.7539 280.791 31.7539C281.482 31.7539 282.086 31.9092 282.602 32.2197C283.117 32.5303 283.475 32.9023 283.674 33.3359V27.9395H285.3V38.6621C285.306 39.2012 285.326 39.9805 285.361 41H283.718L283.683 39.4707C283.501 39.9395 283.149 40.3438 282.628 40.6836C282.112 41.0234 281.471 41.1934 280.703 41.1934ZM289.404 35.6123H294.581C294.522 34.7861 294.282 34.1504 293.86 33.7051C293.438 33.2598 292.876 33.0371 292.173 33.0371C291.435 33.0371 290.816 33.2656 290.318 33.7227C289.826 34.1797 289.521 34.8096 289.404 35.6123ZM292.375 41.1934C290.939 41.1934 289.8 40.7686 288.956 39.9189C288.112 39.0635 287.69 37.9297 287.69 36.5176C287.69 35.1289 288.095 33.9893 288.903 33.0986C289.718 32.2021 290.793 31.7539 292.129 31.7539C292.973 31.7539 293.693 31.9502 294.291 32.3428C294.895 32.7354 295.34 33.2686 295.627 33.9424C295.92 34.6162 296.066 35.3984 296.066 36.2891C296.066 36.4004 296.058 36.5439 296.04 36.7197H289.36C289.378 37.7275 289.668 38.5068 290.23 39.0576C290.793 39.6025 291.537 39.875 292.463 39.875C293.541 39.875 294.496 39.541 295.328 38.873L295.812 40.0684C294.845 40.8184 293.699 41.1934 292.375 41.1934ZM303.845 41V34.3379C303.845 34.0332 303.812 33.248 303.748 31.9824H305.427L305.444 33.4414C305.685 32.9141 306.068 32.501 306.596 32.2021C307.123 31.9033 307.7 31.7539 308.327 31.7539C308.972 31.7539 309.534 31.9238 310.015 32.2637C310.501 32.6035 310.853 33.084 311.069 33.7051C311.397 33.0957 311.84 32.6182 312.396 32.2725C312.959 31.9268 313.592 31.7539 314.295 31.7539C315.32 31.7539 316.097 32.082 316.624 32.7383C317.157 33.3887 317.424 34.3027 317.424 35.4805V41H315.807V35.6123C315.807 34.8154 315.672 34.1943 315.402 33.749C315.133 33.2979 314.717 33.0723 314.154 33.0723C313.434 33.0723 312.812 33.3359 312.291 33.8633C311.775 34.3848 311.5 35.0293 311.465 35.7969V41H309.848V35.4717C309.848 34.751 309.707 34.1709 309.426 33.7314C309.145 33.292 308.696 33.0723 308.081 33.0723C307.372 33.0723 306.771 33.3096 306.279 33.7842C305.787 34.2588 305.518 34.833 305.471 35.5068V41H303.845ZM320.667 44.8057L320.008 43.6982C321.467 43.2119 322.372 42.4414 322.724 41.3867L322.873 40.9297L319.19 31.9824H320.887L323.673 39.1895L326.283 31.9824H327.909L324.271 41.4746C323.948 42.3242 323.477 43.0391 322.855 43.6191C322.24 44.1992 321.511 44.5947 320.667 44.8057ZM337.313 41L333.534 31.9824H335.301C335.512 32.5332 335.811 33.3037 336.197 34.2939C336.59 35.2842 336.944 36.1895 337.261 37.0098C337.583 37.8242 337.879 38.5977 338.148 39.3301C338.4 38.5859 338.679 37.8066 338.983 36.9922C339.294 36.1719 339.64 35.2695 340.021 34.2852C340.407 33.3008 340.703 32.5332 340.908 31.9824H342.64L338.86 41H337.313ZM348.124 39.875C349.021 39.875 349.703 39.5645 350.172 38.9434C350.646 38.3164 350.884 37.4756 350.884 36.4209C350.884 35.4248 350.644 34.6191 350.163 34.0039C349.683 33.3828 348.997 33.0723 348.106 33.0723C347.169 33.0723 346.454 33.3828 345.962 34.0039C345.476 34.625 345.232 35.4395 345.232 36.4473C345.232 37.4609 345.479 38.2871 345.971 38.9258C346.463 39.5586 347.181 39.875 348.124 39.875ZM347.896 41.1934C347.222 41.1934 346.609 41.0674 346.059 40.8154C345.514 40.5635 345.062 40.2236 344.705 39.7959C344.354 39.3623 344.081 38.8643 343.888 38.3018C343.7 37.7334 343.606 37.1299 343.606 36.4912C343.606 35.6123 343.776 34.8184 344.116 34.1094C344.462 33.3945 344.963 32.8232 345.619 32.3955C346.275 31.9678 347.034 31.7539 347.896 31.7539C348.534 31.7539 349.114 31.9092 349.636 32.2197C350.163 32.5303 350.562 32.9287 350.831 33.415V31.9824H352.431V41H350.813V39.4619C350.556 40.001 350.172 40.4258 349.662 40.7363C349.152 41.041 348.563 41.1934 347.896 41.1934ZM359.4 41.1934C358.006 41.1934 356.89 40.7598 356.052 39.8926C355.22 39.0195 354.804 37.9033 354.804 36.5439C354.804 35.1201 355.229 33.9658 356.078 33.0811C356.928 32.1963 358.047 31.7539 359.436 31.7539C360.695 31.7539 361.688 32.1113 362.415 32.8262L361.844 33.8984C361.217 33.3535 360.452 33.0811 359.55 33.0811C358.63 33.0811 357.886 33.3828 357.317 33.9863C356.755 34.584 356.474 35.4336 356.474 36.5352C356.474 37.5547 356.746 38.3662 357.291 38.9697C357.842 39.5732 358.586 39.875 359.523 39.875C360.432 39.875 361.252 39.5938 361.984 39.0312L362.494 40.2002C361.639 40.8623 360.607 41.1934 359.4 41.1934ZM368.673 39.875C369.569 39.875 370.252 39.5645 370.721 38.9434C371.195 38.3164 371.433 37.4756 371.433 36.4209C371.433 35.4248 371.192 34.6191 370.712 34.0039C370.231 33.3828 369.546 33.0723 368.655 33.0723C367.718 33.0723 367.003 33.3828 366.511 34.0039C366.024 34.625 365.781 35.4395 365.781 36.4473C365.781 37.4609 366.027 38.2871 366.52 38.9258C367.012 39.5586 367.729 39.875 368.673 39.875ZM368.444 41.1934C367.771 41.1934 367.158 41.0674 366.607 40.8154C366.062 40.5635 365.611 40.2236 365.254 39.7959C364.902 39.3623 364.63 38.8643 364.437 38.3018C364.249 37.7334 364.155 37.1299 364.155 36.4912C364.155 35.6123 364.325 34.8184 364.665 34.1094C365.011 33.3945 365.512 32.8232 366.168 32.3955C366.824 31.9678 367.583 31.7539 368.444 31.7539C369.083 31.7539 369.663 31.9092 370.185 32.2197C370.712 32.5303 371.11 32.9287 371.38 33.415V31.9824H372.979V41H371.362V39.4619C371.104 40.001 370.721 40.4258 370.211 40.7363C369.701 41.041 369.112 41.1934 368.444 41.1934ZM380.652 41H379.905C378.628 40.9883 377.752 40.7598 377.277 40.3145C376.809 39.8691 376.574 39.0576 376.574 37.8799V33.0635H374.843V31.9824H376.609V29.6621L378.191 29.1963V31.9824H380.635V33.0635H378.191V37.9678C378.191 38.29 378.212 38.5508 378.253 38.75C378.3 38.9492 378.37 39.1191 378.464 39.2598C378.558 39.3945 378.707 39.4941 378.912 39.5586C379.117 39.623 379.349 39.6699 379.606 39.6992C379.864 39.7227 380.213 39.7344 380.652 39.7344V41ZM383.052 29.7061V28.2031H384.651V29.7061H383.052ZM383.043 41V31.9824H384.651V41H383.043ZM391.647 41.1934C390.188 41.1934 389.046 40.7598 388.22 39.8926C387.399 39.0254 386.989 37.8945 386.989 36.5C386.989 35.082 387.402 33.9365 388.229 33.0635C389.061 32.1904 390.206 31.7539 391.665 31.7539C393.118 31.7539 394.249 32.1904 395.058 33.0635C395.866 33.9307 396.271 35.0762 396.271 36.5C396.271 37.8945 395.86 39.0254 395.04 39.8926C394.22 40.7598 393.089 41.1934 391.647 41.1934ZM391.647 39.875C392.597 39.875 393.32 39.5674 393.818 38.9521C394.322 38.3369 394.574 37.5195 394.574 36.5C394.574 35.4629 394.319 34.6338 393.81 34.0127C393.306 33.3857 392.582 33.0723 391.639 33.0723C390.689 33.0723 389.96 33.3857 389.45 34.0127C388.94 34.6338 388.686 35.4629 388.686 36.5C388.686 37.5195 388.938 38.3369 389.441 38.9521C389.951 39.5674 390.687 39.875 391.647 39.875ZM398.714 41V34.4785C398.714 34.0801 398.705 33.6729 398.688 33.2568C398.676 32.8408 398.661 32.5244 398.644 32.3076L398.617 31.9824H400.287L400.305 33.3975C400.615 32.8818 401.049 32.4805 401.605 32.1934C402.168 31.9004 402.76 31.7539 403.381 31.7539C404.518 31.7539 405.355 32.0996 405.895 32.791C406.434 33.4766 406.703 34.5195 406.703 35.9199V41H405.086V35.9287C405.086 34.9502 404.939 34.2295 404.646 33.7666C404.354 33.3037 403.838 33.0723 403.1 33.0723C402.42 33.0723 401.802 33.3037 401.245 33.7666C400.688 34.2236 400.387 34.751 400.34 35.3486V41H398.714ZM414.886 41V34.3379C414.886 34.0332 414.854 33.248 414.789 31.9824H416.468L416.485 33.4414C416.726 32.9141 417.109 32.501 417.637 32.2021C418.164 31.9033 418.741 31.7539 419.368 31.7539C420.013 31.7539 420.575 31.9238 421.056 32.2637C421.542 32.6035 421.894 33.084 422.11 33.7051C422.438 33.0957 422.881 32.6182 423.438 32.2725C424 31.9268 424.633 31.7539 425.336 31.7539C426.361 31.7539 427.138 32.082 427.665 32.7383C428.198 33.3887 428.465 34.3027 428.465 35.4805V41H426.848V35.6123C426.848 34.8154 426.713 34.1943 426.443 33.749C426.174 33.2979 425.758 33.0723 425.195 33.0723C424.475 33.0723 423.854 33.3359 423.332 33.8633C422.816 34.3848 422.541 35.0293 422.506 35.7969V41H420.889V35.4717C420.889 34.751 420.748 34.1709 420.467 33.7314C420.186 33.292 419.737 33.0723 419.122 33.0723C418.413 33.0723 417.812 33.3096 417.32 33.7842C416.828 34.2588 416.559 34.833 416.512 35.5068V41H414.886ZM435.417 41.1934C433.958 41.1934 432.815 40.7598 431.989 39.8926C431.169 39.0254 430.759 37.8945 430.759 36.5C430.759 35.082 431.172 33.9365 431.998 33.0635C432.83 32.1904 433.976 31.7539 435.435 31.7539C436.888 31.7539 438.019 32.1904 438.827 33.0635C439.636 33.9307 440.04 35.0762 440.04 36.5C440.04 37.8945 439.63 39.0254 438.81 39.8926C437.989 40.7598 436.858 41.1934 435.417 41.1934ZM435.417 39.875C436.366 39.875 437.09 39.5674 437.588 38.9521C438.092 38.3369 438.344 37.5195 438.344 36.5C438.344 35.4629 438.089 34.6338 437.579 34.0127C437.075 33.3857 436.352 33.0723 435.408 33.0723C434.459 33.0723 433.729 33.3857 433.22 34.0127C432.71 34.6338 432.455 35.4629 432.455 36.5C432.455 37.5195 432.707 38.3369 433.211 38.9521C433.721 39.5674 434.456 39.875 435.417 39.875ZM442.501 41V34.1973C442.501 33.998 442.489 33.7139 442.466 33.3447C442.448 32.9756 442.431 32.6562 442.413 32.3867L442.387 31.9824H444.101L444.118 33.3887C444.663 32.3105 445.466 31.7715 446.526 31.7715C446.86 31.7715 447.165 31.8066 447.44 31.877L447.432 33.3096C447.086 33.2158 446.755 33.1689 446.438 33.1689C445.747 33.1689 445.19 33.4121 444.769 33.8984C444.347 34.3789 444.136 35.0732 444.136 35.9814V41H442.501ZM450.596 35.6123H455.772C455.714 34.7861 455.474 34.1504 455.052 33.7051C454.63 33.2598 454.067 33.0371 453.364 33.0371C452.626 33.0371 452.008 33.2656 451.51 33.7227C451.018 34.1797 450.713 34.8096 450.596 35.6123ZM453.566 41.1934C452.131 41.1934 450.991 40.7686 450.147 39.9189C449.304 39.0635 448.882 37.9297 448.882 36.5176C448.882 35.1289 449.286 33.9893 450.095 33.0986C450.909 32.2021 451.984 31.7539 453.32 31.7539C454.164 31.7539 454.885 31.9502 455.482 32.3428C456.086 32.7354 456.531 33.2686 456.818 33.9424C457.111 34.6162 457.258 35.3984 457.258 36.2891C457.258 36.4004 457.249 36.5439 457.231 36.7197H450.552C450.569 37.7275 450.859 38.5068 451.422 39.0576C451.984 39.6025 452.729 39.875 453.654 39.875C454.732 39.875 455.688 39.541 456.52 38.873L457.003 40.0684C456.036 40.8184 454.891 41.1934 453.566 41.1934ZM466.082 35.6123H471.259C471.2 34.7861 470.96 34.1504 470.538 33.7051C470.116 33.2598 469.554 33.0371 468.851 33.0371C468.112 33.0371 467.494 33.2656 466.996 33.7227C466.504 34.1797 466.199 34.8096 466.082 35.6123ZM469.053 41.1934C467.617 41.1934 466.478 40.7686 465.634 39.9189C464.79 39.0635 464.368 37.9297 464.368 36.5176C464.368 35.1289 464.772 33.9893 465.581 33.0986C466.396 32.2021 467.471 31.7539 468.807 31.7539C469.65 31.7539 470.371 31.9502 470.969 32.3428C471.572 32.7354 472.018 33.2686 472.305 33.9424C472.598 34.6162 472.744 35.3984 472.744 36.2891C472.744 36.4004 472.735 36.5439 472.718 36.7197H466.038C466.056 37.7275 466.346 38.5068 466.908 39.0576C467.471 39.6025 468.215 39.875 469.141 39.875C470.219 39.875 471.174 39.541 472.006 38.873L472.489 40.0684C471.522 40.8184 470.377 41.1934 469.053 41.1934ZM475.284 41V34.4785C475.284 34.0801 475.275 33.6729 475.258 33.2568C475.246 32.8408 475.231 32.5244 475.214 32.3076L475.188 31.9824H476.857L476.875 33.3975C477.186 32.8818 477.619 32.4805 478.176 32.1934C478.738 31.9004 479.33 31.7539 479.951 31.7539C481.088 31.7539 481.926 32.0996 482.465 32.791C483.004 33.4766 483.273 34.5195 483.273 35.9199V41H481.656V35.9287C481.656 34.9502 481.51 34.2295 481.217 33.7666C480.924 33.3037 480.408 33.0723 479.67 33.0723C478.99 33.0723 478.372 33.3037 477.815 33.7666C477.259 34.2236 476.957 34.751 476.91 35.3486V41H475.284ZM486.095 29.7764V28.2031H487.703V29.7764H486.095ZM484.847 44.7178C484.472 44.7178 484.1 44.6826 483.73 44.6123V43.2852C484.035 43.3555 484.293 43.3906 484.504 43.3906C485.055 43.3906 485.465 43.1709 485.734 42.7314C486.01 42.292 486.147 41.6094 486.147 40.6836V31.9824H487.677V40.0859C487.677 40.4141 487.668 40.7158 487.65 40.9912C487.639 41.2607 487.609 41.5596 487.562 41.8877C487.516 42.2158 487.451 42.5088 487.369 42.7666C487.293 43.0244 487.182 43.2793 487.035 43.5312C486.895 43.7832 486.728 43.9912 486.534 44.1553C486.341 44.3252 486.101 44.46 485.813 44.5596C485.526 44.665 485.204 44.7178 484.847 44.7178ZM494.638 41.1934C493.179 41.1934 492.036 40.7598 491.21 39.8926C490.39 39.0254 489.979 37.8945 489.979 36.5C489.979 35.082 490.393 33.9365 491.219 33.0635C492.051 32.1904 493.196 31.7539 494.655 31.7539C496.108 31.7539 497.239 32.1904 498.048 33.0635C498.856 33.9307 499.261 35.0762 499.261 36.5C499.261 37.8945 498.851 39.0254 498.03 39.8926C497.21 40.7598 496.079 41.1934 494.638 41.1934ZM494.638 39.875C495.587 39.875 496.311 39.5674 496.809 38.9521C497.312 38.3369 497.564 37.5195 497.564 36.5C497.564 35.4629 497.31 34.6338 496.8 34.0127C496.296 33.3857 495.572 33.0723 494.629 33.0723C493.68 33.0723 492.95 33.3857 492.44 34.0127C491.931 34.6338 491.676 35.4629 491.676 36.5C491.676 37.5195 491.928 38.3369 492.432 38.9521C492.941 39.5674 493.677 39.875 494.638 39.875ZM501.985 44.8057L501.326 43.6982C502.785 43.2119 503.69 42.4414 504.042 41.3867L504.191 40.9297L500.509 31.9824H502.205L504.991 39.1895L507.602 31.9824H509.228L505.589 41.4746C505.267 42.3242 504.795 43.0391 504.174 43.6191C503.559 44.1992 502.829 44.5947 501.985 44.8057ZM514.923 39.875C515.819 39.875 516.502 39.5645 516.971 38.9434C517.445 38.3164 517.683 37.4756 517.683 36.4209C517.683 35.4248 517.442 34.6191 516.962 34.0039C516.481 33.3828 515.796 33.0723 514.905 33.0723C513.968 33.0723 513.253 33.3828 512.761 34.0039C512.274 34.625 512.031 35.4395 512.031 36.4473C512.031 37.4609 512.277 38.2871 512.77 38.9258C513.262 39.5586 513.979 39.875 514.923 39.875ZM514.694 41.1934C514.021 41.1934 513.408 41.0674 512.857 40.8154C512.312 40.5635 511.861 40.2236 511.504 39.7959C511.152 39.3623 510.88 38.8643 510.687 38.3018C510.499 37.7334 510.405 37.1299 510.405 36.4912C510.405 35.6123 510.575 34.8184 510.915 34.1094C511.261 33.3945 511.762 32.8232 512.418 32.3955C513.074 31.9678 513.833 31.7539 514.694 31.7539C515.333 31.7539 515.913 31.9092 516.435 32.2197C516.962 32.5303 517.36 32.9287 517.63 33.415V31.9824H519.229V41H517.612V39.4619C517.354 40.001 516.971 40.4258 516.461 40.7363C515.951 41.041 515.362 41.1934 514.694 41.1934ZM526.683 39.875C527.538 39.875 528.191 39.5615 528.643 38.9346C529.1 38.3076 529.328 37.4609 529.328 36.3945C529.328 35.4043 529.094 34.6045 528.625 33.9951C528.156 33.3799 527.506 33.0723 526.674 33.0723C525.789 33.0723 525.086 33.3857 524.564 34.0127C524.043 34.6396 523.782 35.457 523.782 36.4648C523.782 37.4844 524.04 38.3076 524.556 38.9346C525.077 39.5615 525.786 39.875 526.683 39.875ZM526.894 41.1934C526.173 41.1934 525.537 41.0293 524.986 40.7012C524.441 40.373 524.052 39.9629 523.817 39.4707L523.809 41H522.156C522.197 39.6348 522.218 38.8438 522.218 38.627V27.9395H523.844V33.5117C524.061 33.0371 524.436 32.627 524.969 32.2812C525.508 31.9297 526.158 31.7539 526.92 31.7539C528.168 31.7539 529.161 32.1758 529.899 33.0195C530.644 33.8574 531.016 34.9766 531.016 36.377C531.016 37.8242 530.629 38.9902 529.855 39.875C529.082 40.7539 528.095 41.1934 526.894 41.1934ZM533.468 41V27.9395H535.085V41H533.468ZM539.137 35.6123H544.313C544.255 34.7861 544.015 34.1504 543.593 33.7051C543.171 33.2598 542.608 33.0371 541.905 33.0371C541.167 33.0371 540.549 33.2656 540.051 33.7227C539.559 34.1797 539.254 34.8096 539.137 35.6123ZM542.107 41.1934C540.672 41.1934 539.532 40.7686 538.688 39.9189C537.845 39.0635 537.423 37.9297 537.423 36.5176C537.423 35.1289 537.827 33.9893 538.636 33.0986C539.45 32.2021 540.525 31.7539 541.861 31.7539C542.705 31.7539 543.426 31.9502 544.023 32.3428C544.627 32.7354 545.072 33.2686 545.359 33.9424C545.652 34.6162 545.799 35.3984 545.799 36.2891C545.799 36.4004 545.79 36.5439 545.772 36.7197H539.093C539.11 37.7275 539.4 38.5068 539.963 39.0576C540.525 39.6025 541.27 39.875 542.195 39.875C543.273 39.875 544.229 39.541 545.061 38.873L545.544 40.0684C544.577 40.8184 543.432 41.1934 542.107 41.1934ZM548.11 41V39.0225H550.176V41H548.11Z" fill="#333333"/>
</svg>
