<svg width="186" height="36" viewBox="0 0 186 36" fill="none" xmlns="http://www.w3.org/2000/svg">
<path d="M0.916 10.876L0.844 10.3C0.844 8.62 1.576 7.12 3.04 5.8C5.656 3.472 9.88 2.032 15.712 1.48C16.6 1.408 17.632 1.372 18.808 1.372C20.008 1.372 21.52 1.552 23.344 1.912C25.168 2.248 26.668 2.884 27.844 3.82C29.716 5.356 30.652 7.372 30.652 9.868C30.652 12.34 29.908 14.632 28.42 16.744C26.956 18.832 25.084 20.452 22.804 21.604C20.524 22.756 18.088 23.332 15.496 23.332C12.904 23.332 10.804 22.72 9.196 21.496C9.172 21.52 9.052 21.724 8.836 22.108C8.644 22.492 8.44 22.864 8.224 23.224C7.12 24.976 6.136 25.216 5.272 23.944C4.768 23.2 4.516 22.312 4.516 21.28C4.516 20.248 4.624 19 4.84 17.536C4.864 17.392 4.768 17.056 4.552 16.528C4.48 16.288 4.564 16.048 4.804 15.808C4.996 15.664 5.26 15.544 5.596 15.448C5.956 15.352 6.196 15.352 6.316 15.448C6.46 15.544 6.436 15.808 6.244 16.24C6.052 16.648 5.956 17.032 5.956 17.392C5.956 17.752 6.328 18.292 7.072 19.012C7.816 19.708 8.272 20.08 8.44 20.128C9.016 18.712 10.24 16.06 12.112 12.172C12.328 11.74 12.436 11.416 12.436 11.2C12.436 10.984 12.412 10.816 12.364 10.696C12.484 10 13.24 8.896 14.632 7.384C16.048 5.872 17.188 5.116 18.052 5.116C18.388 5.116 18.808 5.236 19.312 5.476C19.816 5.692 20.104 6.004 20.176 6.412C20.176 6.556 20.164 6.64 20.14 6.664C20.116 6.664 20.056 6.64 19.96 6.592C19.864 6.544 19.792 6.52 19.744 6.52C18.976 6.52 18.064 7.084 17.008 8.212C15.976 9.316 14.944 10.768 13.912 12.568C12.088 15.688 10.624 18.448 9.52 20.848C11.008 21.928 12.628 22.468 14.38 22.468C16.66 22.468 18.844 21.88 20.932 20.704C23.02 19.528 24.7 18.172 25.972 16.636C28.036 14.116 29.068 11.632 29.068 9.184C29.068 7.384 28.348 5.776 26.908 4.36C25.492 2.944 23.236 2.188 20.14 2.092C19.996 2.092 19.852 2.092 19.708 2.092C17.26 2.092 14.68 2.5 11.968 3.316C9.256 4.108 6.94 5.248 5.02 6.736C3.1 8.224 2.14 9.772 2.14 11.38C2.14 11.788 2.26 12.148 2.5 12.46C2.764 12.772 3.028 12.988 3.292 13.108C3.58 13.228 3.928 13.36 4.336 13.504C4.768 13.648 5.044 13.756 5.164 13.828C5.308 13.876 5.392 13.936 5.416 14.008C5.464 14.2 5.296 14.296 4.912 14.296C4.024 14.224 3.124 13.9 2.212 13.324C1.324 12.724 0.88 12.028 0.88 11.236C0.88 11.116 0.892 10.996 0.916 10.876ZM5.776 18.76C5.776 22 6.004 23.62 6.46 23.62C6.796 23.62 7.276 22.78 7.9 21.1C7.948 21.028 7.972 20.98 7.972 20.956C7.804 20.812 7.444 20.464 6.892 19.912C6.364 19.336 5.992 18.952 5.776 18.76ZM39.0451 11.524C40.3411 11.524 40.9891 12.148 40.9891 13.396C40.9891 14.044 40.8091 14.572 40.4491 14.98C39.8491 15.868 38.8771 16.648 37.5331 17.32C36.1891 17.968 35.0491 18.328 34.1131 18.4C33.7771 18.424 33.5971 18.328 33.5731 18.112C33.5491 18.016 33.5731 17.956 33.6451 17.932C33.7411 17.908 33.8131 17.896 33.8611 17.896C34.4131 17.848 35.1211 17.584 35.9851 17.104C37.5931 16.24 38.7691 15.352 39.5131 14.44C39.8251 14.008 39.9811 13.6 39.9811 13.216C39.9811 12.808 39.7891 12.604 39.4051 12.604C39.0931 12.604 38.6731 12.736 38.1451 13C37.0171 13.528 35.8291 14.452 34.5811 15.772C33.3331 17.068 32.5171 18.34 32.1331 19.588C32.0131 19.972 31.9531 20.356 31.9531 20.74C31.9531 21.1 32.1091 21.448 32.4211 21.784C32.7331 22.12 33.2131 22.288 33.8611 22.288C34.5811 22.288 35.4091 22.096 36.3451 21.712C39.0571 20.608 41.1451 18.94 42.6091 16.708C42.7531 16.516 42.8851 16.48 43.0051 16.6C43.1011 16.648 43.1491 16.708 43.1491 16.78C43.1491 16.852 43.1131 16.936 43.0411 17.032C42.3211 18.232 41.4091 19.3 40.3051 20.236C38.1691 22.06 36.0931 22.972 34.0771 22.972C32.3491 22.972 31.1371 22.456 30.4411 21.424C30.1771 21.016 30.0451 20.524 30.0451 19.948C30.0451 19.372 30.2011 18.688 30.5131 17.896C31.1131 16.528 32.3971 15.124 34.3651 13.684C36.3331 12.244 37.8931 11.524 39.0451 11.524ZM54.7172 3.64C55.0052 3.112 55.1492 2.704 55.1492 2.416C55.1492 1.912 54.9452 1.66 54.5372 1.66C54.2012 1.66 53.7812 1.852 53.2772 2.236C51.3572 3.724 49.4972 6.076 47.6972 9.292C46.2572 11.884 45.2012 14.104 44.5292 15.952C46.1852 14.824 48.0332 12.988 50.0732 10.444C52.1372 7.9 53.6852 5.632 54.7172 3.64ZM43.9892 17.392C43.7012 18.208 43.5452 18.76 43.5212 19.048C43.4972 19.312 43.4852 19.684 43.4852 20.164C43.4852 20.62 43.6052 21.04 43.8452 21.424C44.2532 22.072 44.9372 22.12 45.8972 21.568C46.6172 21.184 47.5292 20.488 48.6332 19.48C49.7372 18.448 50.5892 17.512 51.1892 16.672C51.2372 16.6 51.3092 16.564 51.4052 16.564C51.6212 16.564 51.6812 16.72 51.5852 17.032C51.2252 17.68 50.5532 18.508 49.5692 19.516C48.6092 20.524 47.7332 21.328 46.9412 21.928C46.1492 22.504 45.3572 22.792 44.5652 22.792C42.7412 22.792 41.8292 21.904 41.8292 20.128C41.8292 20.056 41.8292 19.984 41.8292 19.912C41.9252 18.232 42.7772 15.7 44.3852 12.316C45.9932 8.908 47.4452 6.34 48.7412 4.612L49.8572 3.208C50.1212 2.896 50.5052 2.512 51.0092 2.056C51.9692 1.144 52.9532 0.688 53.9612 0.688C54.9932 0.688 55.6892 0.999999 56.0492 1.624C56.1692 1.84 56.2292 2.152 56.2292 2.56C56.2292 2.968 56.0492 3.544 55.6892 4.288C53.2172 8.584 49.3172 12.952 43.9892 17.392ZM54.1538 12.028C54.7538 12.028 55.1138 12.22 55.2338 12.604C55.2818 12.82 55.2458 13.036 55.1258 13.252C55.0298 13.444 54.9578 13.6 54.9098 13.72C54.8618 13.84 54.8258 13.936 54.8018 14.008C54.6818 14.248 54.5618 14.476 54.4418 14.692C53.0738 17.428 52.3538 19.168 52.2818 19.912C52.2578 20.128 52.2458 20.404 52.2458 20.74C52.2458 21.076 52.3418 21.352 52.5338 21.568C52.8698 21.952 53.3498 21.976 53.9738 21.64C54.5978 21.304 55.4618 20.632 56.5658 19.624C57.6938 18.616 58.6058 17.632 59.3018 16.672C59.3978 16.552 59.5058 16.528 59.6258 16.6C59.7458 16.648 59.8058 16.708 59.8058 16.78C59.8058 16.828 59.7818 16.888 59.7338 16.96C59.3738 17.608 58.7258 18.436 57.7898 19.444C56.2538 21.1 54.9698 22.12 53.9378 22.504C53.3378 22.72 52.8338 22.828 52.4258 22.828C51.4658 22.828 50.8298 22.372 50.5178 21.46C50.4698 21.292 50.4458 21.088 50.4458 20.848C50.4458 20.008 50.8298 18.736 51.5978 17.032C51.4778 17.296 51.0098 17.896 50.1938 18.832C49.9778 19.072 49.8098 19.072 49.6898 18.832C49.6658 18.784 49.6538 18.724 49.6538 18.652C49.6538 18.556 49.7018 18.448 49.7978 18.328C50.9738 16.864 51.8978 15.628 52.5698 14.62C52.5218 14.5 52.5458 14.344 52.6418 14.152C53.1218 12.808 53.5418 12.1 53.9018 12.028C53.9738 12.028 54.0578 12.028 54.1538 12.028ZM56.9978 7.24L56.7098 8.392C56.7098 8.608 56.5538 8.956 56.2418 9.436C55.9298 9.916 55.6898 10.156 55.5218 10.156C54.4898 10.156 53.9738 9.904 53.9738 9.4C53.9738 9.304 54.4898 8.86 55.5218 8.068L56.1338 7.6C56.5178 7.264 56.7578 7.096 56.8538 7.096C56.9498 7.096 56.9978 7.144 56.9978 7.24ZM57.8829 35.716C57.6909 35.716 57.4509 35.68 57.1629 35.608C55.9389 35.296 55.3269 34.648 55.3269 33.664C55.3269 32.704 55.9629 31.492 57.2349 30.028C58.4829 28.564 61.1349 26.488 65.1909 23.8C66.9189 20.272 68.1189 17.476 68.7909 15.412C67.4469 17.044 66.4869 18.172 65.9109 18.796C63.7509 21.196 62.0109 22.396 60.6909 22.396C60.3069 22.396 59.8869 22.276 59.4309 22.036C58.9989 21.82 58.6269 21.508 58.3149 21.1C58.0029 20.668 57.8469 20.212 57.8469 19.732C57.8469 18.46 58.7349 17.032 60.5109 15.448C61.5669 14.488 62.6709 13.672 63.8229 13C64.9749 12.328 65.8869 11.908 66.5589 11.74C67.2309 11.572 67.8789 11.488 68.5029 11.488C69.1269 11.488 69.6789 11.656 70.1589 11.992C70.6389 12.328 70.8789 12.664 70.8789 13C70.8789 13.192 70.7829 13.252 70.5909 13.18C70.3269 12.724 69.7389 12.496 68.8269 12.496C67.9389 12.496 66.9189 12.796 65.7669 13.396C64.6389 13.972 63.6189 14.668 62.7069 15.484C61.7949 16.276 61.0149 17.188 60.3669 18.22C59.7429 19.228 59.4309 19.972 59.4309 20.452C59.4309 21.292 59.6709 21.712 60.1509 21.712C60.8229 21.712 61.8549 21.16 63.2469 20.056C65.3109 18.448 67.2909 16.492 69.1869 14.188C69.4989 13.732 70.1469 13.744 71.1309 14.224C71.5149 14.416 71.6709 14.584 71.5989 14.728C71.2869 15.424 70.7109 16.636 69.8709 18.364C69.0549 20.068 68.4429 21.352 68.0349 22.216C68.5869 21.928 69.5229 21.208 70.8429 20.056C72.1869 18.88 73.3629 17.704 74.3709 16.528C74.8989 15.904 75.1629 15.808 75.1629 16.24C75.1629 16.84 73.7229 18.424 70.8429 20.992C69.1869 22.48 68.0109 23.416 67.3149 23.8C65.2749 28 63.9069 30.64 63.2109 31.72C61.4109 34.384 59.6349 35.716 57.8829 35.716ZM64.5069 25.168C61.6269 27.328 59.5629 29.032 58.3149 30.28C57.0669 31.552 56.4429 32.74 56.4429 33.844C56.4429 34.18 56.5509 34.42 56.7669 34.564C56.9829 34.708 57.2109 34.78 57.4509 34.78C57.6909 34.78 58.0389 34.6 58.4949 34.24C58.9509 33.88 59.3349 33.52 59.6469 33.16C59.9829 32.824 60.2709 32.5 60.5109 32.188C60.7509 31.9 61.0149 31.516 61.3029 31.036C61.6149 30.58 61.8549 30.22 62.0229 29.956C62.1909 29.692 62.4189 29.272 62.7069 28.696C63.0189 28.144 63.2229 27.76 63.3189 27.544C63.4389 27.352 63.6429 26.944 63.9309 26.32C64.2429 25.696 64.4349 25.312 64.5069 25.168ZM86.1435 0.939999C86.5755 0.771999 86.9475 0.688 87.2595 0.688C88.3155 0.688 89.0115 0.976 89.3475 1.552C89.5395 1.84 89.6355 2.092 89.6355 2.308C89.6355 3.94 88.2675 5.992 85.5315 8.464C83.1075 10.6 80.8755 12.436 78.8355 13.972C78.1635 15.484 77.4675 17.344 76.7475 19.552C77.6115 18.496 78.7035 17.272 80.0235 15.88C82.6875 13.12 84.5475 11.74 85.6035 11.74C86.1315 11.74 86.4075 12.004 86.4315 12.532C86.4795 13.084 86.3595 13.612 86.0715 14.116C85.8075 14.62 85.5555 15.088 85.3155 15.52C84.1875 17.392 83.6235 19.06 83.6235 20.524C83.6235 21.004 83.7195 21.352 83.9115 21.568C84.2475 21.952 84.7275 21.976 85.3515 21.64C85.9755 21.304 86.8395 20.632 87.9435 19.624C89.0715 18.616 89.9835 17.632 90.6795 16.672C90.7995 16.552 90.9075 16.528 91.0035 16.6C91.1235 16.648 91.1835 16.708 91.1835 16.78C91.1835 16.828 91.1595 16.888 91.1115 16.96C90.7515 17.608 90.1035 18.436 89.1675 19.444C88.2315 20.428 87.4755 21.136 86.8995 21.568C85.7955 22.408 84.7395 22.828 83.7315 22.828C82.8195 22.828 82.2075 22.372 81.8955 21.46C81.8235 21.244 81.7875 20.992 81.7875 20.704C81.7875 20.392 81.8115 20.068 81.8595 19.732C81.9795 18.724 82.6155 17.152 83.7675 15.016C84.0075 14.584 84.1275 14.284 84.1275 14.116C84.1275 13.924 84.0315 13.828 83.8395 13.828C83.4555 13.828 82.7115 14.308 81.6075 15.268C80.8635 15.964 79.7595 17.284 78.2955 19.228C76.8555 21.148 76.0395 22.168 75.8475 22.288C74.9835 22.72 74.4435 22.936 74.2275 22.936C74.0355 22.936 73.9275 22.9 73.9035 22.828C73.8795 22.78 73.8915 22.708 73.9395 22.612C73.9875 22.516 74.1795 21.988 74.5155 21.028C75.6435 17.836 76.4115 15.724 76.8195 14.692C76.0275 15.7 75.0435 16.84 73.8675 18.112C73.6755 18.304 73.5795 18.268 73.5795 18.004C73.5795 17.716 73.6875 17.428 73.9035 17.14C74.1195 16.852 74.5635 16.3 75.2355 15.484C75.9315 14.644 76.4235 14.02 76.7115 13.612C76.4955 13.492 76.3755 13.324 76.3515 13.108C76.3515 12.892 76.4235 12.748 76.5675 12.676C76.7355 12.58 76.9995 12.604 77.3595 12.748C77.5995 12.412 77.8155 12.04 78.0075 11.632C80.8635 5.488 83.5755 1.924 86.1435 0.939999ZM88.1595 3.64C88.4715 3.064 88.6275 2.584 88.6275 2.2C88.6275 1.792 88.4475 1.588 88.0875 1.588C87.7515 1.588 87.2955 1.804 86.7195 2.236C84.0795 4.252 81.6915 7.624 79.5555 12.352C81.1155 11.344 82.7475 10 84.4515 8.32C86.1555 6.64 87.3915 5.08 88.1595 3.64ZM95.9734 11.92C97.8214 11.752 98.9374 11.668 99.3214 11.668C99.7294 11.668 99.9334 11.728 99.9334 11.848C99.9334 11.992 99.6454 12.148 99.0694 12.316C98.5174 12.46 97.1494 12.652 94.9654 12.892C94.8454 13.108 94.7014 13.36 94.5334 13.648C94.1734 14.224 93.9814 14.572 93.9574 14.692C92.5894 17.428 91.8694 19.168 91.7974 19.912C91.7734 20.128 91.7614 20.404 91.7614 20.74C91.7614 21.076 91.8574 21.352 92.0494 21.568C92.3854 21.952 92.8654 21.976 93.4894 21.64C94.1134 21.304 94.9774 20.632 96.0814 19.624C97.2094 18.616 98.1214 17.632 98.8174 16.672C98.9134 16.552 99.0334 16.528 99.1774 16.6C99.5374 16.768 98.9134 17.716 97.3054 19.444C95.7694 21.1 94.4854 22.12 93.4534 22.504C92.8534 22.72 92.3494 22.828 91.9414 22.828C90.9814 22.828 90.3454 22.372 90.0334 21.46C89.9854 21.292 89.9614 21.088 89.9614 20.848C89.9614 20.008 90.3454 18.736 91.1134 17.032C90.9934 17.296 90.5254 17.896 89.7094 18.832C89.4934 19.072 89.3254 19.072 89.2054 18.832C89.1814 18.784 89.1694 18.724 89.1694 18.652C89.1694 18.556 89.2174 18.448 89.3134 18.328C90.4894 16.864 91.4134 15.628 92.0854 14.62C92.0854 14.596 92.3494 14.092 92.8774 13.108C92.6374 13.156 92.3854 13.18 92.1214 13.18C91.8814 13.18 91.7014 13.108 91.5814 12.964C91.4614 12.796 91.4494 12.604 91.5454 12.388C91.7134 12.004 92.3494 11.788 93.4534 11.74C93.4774 11.692 93.5254 11.668 93.5974 11.668L95.3974 8.32C95.4934 8.128 95.6014 7.936 95.7214 7.744C95.8414 7.528 95.9254 7.372 95.9734 7.276C96.0454 7.156 96.1174 7.036 96.1894 6.916C96.2614 6.796 96.3214 6.712 96.3694 6.664C96.4174 6.616 96.4654 6.568 96.5134 6.52C96.6094 6.376 96.8854 6.304 97.3414 6.304C97.8214 6.304 98.1454 6.436 98.3134 6.7C98.3854 6.796 98.4214 6.964 98.4214 7.204C98.4214 7.42 98.3374 7.672 98.1694 7.96C98.0014 8.224 97.8214 8.416 97.6294 8.536C97.4374 8.656 97.3054 8.788 97.2334 8.932L95.5054 11.956L95.9734 11.92ZM126.01 14.116L117.082 12.928C113.434 21.208 109.894 25.876 106.462 26.932C105.838 27.148 105.286 27.256 104.806 27.256C103.006 27.256 101.902 26.5 101.494 24.988C101.47 24.892 101.458 24.784 101.458 24.664C101.458 24.568 101.482 24.436 101.53 24.268C101.554 24.124 101.626 24.076 101.746 24.124C101.866 24.172 101.986 24.4 102.106 24.808C102.322 25.504 102.778 25.948 103.474 26.14C104.002 26.236 104.458 26.284 104.842 26.284C105.25 26.284 105.598 26.236 105.886 26.14C109.39 25.036 112.666 20.572 115.714 12.748L113.806 12.64C113.47 12.616 113.158 12.604 112.87 12.604C109.822 12.604 107.95 13.588 107.254 15.556C107.134 15.82 107.074 16.072 107.074 16.312C107.074 16.552 107.146 16.792 107.29 17.032C107.434 17.272 107.386 17.428 107.146 17.5C106.93 17.548 106.75 17.464 106.606 17.248C106.342 16.768 106.21 16.324 106.21 15.916C106.21 14.452 106.474 13.372 107.002 12.676C107.554 11.956 108.19 11.488 108.91 11.272C109.774 11.032 110.734 10.912 111.79 10.912L113.986 11.128C114.754 11.2 115.486 11.308 116.182 11.452C116.758 9.916 117.454 7.852 118.27 5.26C116.998 6.388 115.438 7.048 113.59 7.24C113.35 7.264 113.218 7.18 113.194 6.988C113.194 6.796 113.338 6.676 113.626 6.628C114.658 6.532 115.714 6.004 116.794 5.044C117.898 4.084 118.738 2.956 119.314 1.66C119.362 1.372 119.758 1.228 120.502 1.228C121.246 1.228 121.606 1.372 121.582 1.66C121.438 2.02 120.898 3.412 119.962 5.836C119.05 8.236 118.258 10.204 117.586 11.74C118.21 11.86 119.122 12.064 120.322 12.352C122.77 12.904 124.75 13.264 126.262 13.432C127.654 10.48 128.518 8.596 128.854 7.78C129.214 6.94 129.394 6.412 129.394 6.196C129.394 5.98 129.358 5.812 129.286 5.692C129.358 5.02 129.874 4.144 130.834 3.064C131.818 1.96 132.742 1.408 133.606 1.408C133.99 1.408 134.446 1.552 134.974 1.84C135.526 2.104 135.802 2.452 135.802 2.884C135.802 2.98 135.742 2.992 135.622 2.92C135.502 2.848 135.418 2.812 135.37 2.812C134.77 2.812 134.074 3.244 133.282 4.108C132.49 4.948 131.71 6.04 130.942 7.384C129.766 9.472 128.722 11.536 127.81 13.576C129.874 13.576 131.254 13.144 131.95 12.28C132.07 12.064 132.19 12.04 132.31 12.208C132.43 12.352 132.382 12.58 132.166 12.892C131.974 13.18 131.53 13.468 130.834 13.756C130.138 14.044 129.034 14.188 127.522 14.188C126.394 16.852 125.83 18.94 125.83 20.452C125.83 21.628 126.166 22.216 126.838 22.216C127.534 22.216 128.554 21.688 129.898 20.632C131.266 19.576 132.55 18.244 133.75 16.636C133.822 16.54 133.93 16.528 134.074 16.6C134.218 16.648 134.254 16.756 134.182 16.924C134.134 17.068 133.954 17.368 133.642 17.824C132.634 19.192 131.398 20.464 129.934 21.64C128.854 22.48 127.678 22.9 126.406 22.9C125.758 22.9 125.254 22.708 124.894 22.324C124.558 21.94 124.366 21.58 124.318 21.244C124.294 20.908 124.282 20.596 124.282 20.308C124.282 20.02 124.33 19.576 124.426 18.976C124.666 17.44 125.194 15.82 126.01 14.116ZM140.697 18.04C141.129 17.152 141.345 16.468 141.345 15.988C141.345 15.508 141.285 15.136 141.165 14.872C141.069 14.584 141.117 14.344 141.309 14.152C141.525 13.96 141.789 13.888 142.101 13.936C142.581 14.056 142.821 14.596 142.821 15.556C142.821 16.516 142.257 17.776 141.129 19.336C141.153 19.984 141.489 20.308 142.137 20.308C142.785 20.308 143.769 19.612 145.089 18.22C145.713 17.5 146.097 17.032 146.241 16.816C146.409 16.6 146.553 16.528 146.673 16.6C146.793 16.648 146.853 16.696 146.853 16.744C146.853 16.984 146.421 17.608 145.557 18.616C144.189 20.296 142.977 21.136 141.921 21.136C141.225 21.136 140.733 20.836 140.445 20.236C139.965 20.74 139.497 21.208 139.041 21.64C138.105 22.432 137.061 22.828 135.909 22.828C135.261 22.828 134.721 22.672 134.289 22.36C133.449 21.856 133.029 20.956 133.029 19.66C133.029 18.244 133.509 16.804 134.469 15.34C135.021 14.476 135.669 13.72 136.413 13.072C137.589 12.04 138.705 11.524 139.761 11.524C140.025 11.524 140.277 11.56 140.517 11.632C141.237 11.872 141.597 12.328 141.597 13C141.597 13.552 141.453 13.828 141.165 13.828C141.045 13.78 140.985 13.6 140.985 13.288C140.985 12.856 140.745 12.64 140.265 12.64C139.425 12.64 138.345 13.408 137.025 14.944C135.705 16.48 134.913 18.028 134.649 19.588C134.601 19.852 134.577 20.152 134.577 20.488C134.577 20.8 134.685 21.172 134.901 21.604C135.117 22.012 135.513 22.216 136.089 22.216C136.689 22.216 137.337 21.952 138.033 21.424C138.729 20.896 139.353 20.224 139.905 19.408L139.797 19.192C139.701 18.808 139.749 18.496 139.941 18.256C140.133 18.016 140.385 17.944 140.697 18.04ZM151.626 11.92C153.474 11.752 154.59 11.668 154.974 11.668C155.382 11.668 155.586 11.728 155.586 11.848C155.586 11.992 155.298 12.148 154.722 12.316C154.17 12.46 152.802 12.652 150.618 12.892C150.498 13.108 150.354 13.36 150.186 13.648C149.826 14.224 149.634 14.572 149.61 14.692C148.242 17.428 147.522 19.168 147.45 19.912C147.426 20.128 147.414 20.404 147.414 20.74C147.414 21.076 147.51 21.352 147.702 21.568C148.038 21.952 148.518 21.976 149.142 21.64C149.766 21.304 150.63 20.632 151.734 19.624C152.862 18.616 153.774 17.632 154.47 16.672C154.566 16.552 154.686 16.528 154.83 16.6C155.19 16.768 154.566 17.716 152.958 19.444C151.422 21.1 150.138 22.12 149.106 22.504C148.506 22.72 148.002 22.828 147.594 22.828C146.634 22.828 145.998 22.372 145.686 21.46C145.638 21.292 145.614 21.088 145.614 20.848C145.614 20.008 145.998 18.736 146.766 17.032C146.646 17.296 146.178 17.896 145.362 18.832C145.146 19.072 144.978 19.072 144.858 18.832C144.834 18.784 144.822 18.724 144.822 18.652C144.822 18.556 144.87 18.448 144.966 18.328C146.142 16.864 147.066 15.628 147.738 14.62C147.738 14.596 148.002 14.092 148.53 13.108C148.29 13.156 148.038 13.18 147.774 13.18C147.534 13.18 147.354 13.108 147.234 12.964C147.114 12.796 147.102 12.604 147.198 12.388C147.366 12.004 148.002 11.788 149.106 11.74C149.13 11.692 149.178 11.668 149.25 11.668L151.05 8.32C151.146 8.128 151.254 7.936 151.374 7.744C151.494 7.528 151.578 7.372 151.626 7.276C151.698 7.156 151.77 7.036 151.842 6.916C151.914 6.796 151.974 6.712 152.022 6.664C152.07 6.616 152.118 6.568 152.166 6.52C152.262 6.376 152.538 6.304 152.994 6.304C153.474 6.304 153.798 6.436 153.966 6.7C154.038 6.796 154.074 6.964 154.074 7.204C154.074 7.42 153.99 7.672 153.822 7.96C153.654 8.224 153.474 8.416 153.282 8.536C153.09 8.656 152.958 8.788 152.886 8.932L151.158 11.956L151.626 11.92ZM162.303 11.524C163.599 11.524 164.247 12.148 164.247 13.396C164.247 14.044 164.067 14.572 163.707 14.98C163.107 15.868 162.135 16.648 160.791 17.32C159.447 17.968 158.307 18.328 157.371 18.4C157.035 18.424 156.855 18.328 156.831 18.112C156.807 18.016 156.831 17.956 156.903 17.932C156.999 17.908 157.071 17.896 157.119 17.896C157.671 17.848 158.379 17.584 159.243 17.104C160.851 16.24 162.027 15.352 162.771 14.44C163.083 14.008 163.239 13.6 163.239 13.216C163.239 12.808 163.047 12.604 162.663 12.604C162.351 12.604 161.931 12.736 161.403 13C160.275 13.528 159.087 14.452 157.839 15.772C156.591 17.068 155.775 18.34 155.391 19.588C155.271 19.972 155.211 20.356 155.211 20.74C155.211 21.1 155.367 21.448 155.679 21.784C155.991 22.12 156.471 22.288 157.119 22.288C157.839 22.288 158.667 22.096 159.603 21.712C162.315 20.608 164.403 18.94 165.867 16.708C166.011 16.516 166.143 16.48 166.263 16.6C166.359 16.648 166.407 16.708 166.407 16.78C166.407 16.852 166.371 16.936 166.299 17.032C165.579 18.232 164.667 19.3 163.563 20.236C161.427 22.06 159.351 22.972 157.335 22.972C155.607 22.972 154.395 22.456 153.699 21.424C153.435 21.016 153.303 20.524 153.303 19.948C153.303 19.372 153.459 18.688 153.771 17.896C154.371 16.528 155.655 15.124 157.623 13.684C159.591 12.244 161.151 11.524 162.303 11.524ZM177.975 3.64C178.263 3.112 178.407 2.704 178.407 2.416C178.407 1.912 178.203 1.66 177.795 1.66C177.459 1.66 177.039 1.852 176.535 2.236C174.615 3.724 172.755 6.076 170.955 9.292C169.515 11.884 168.459 14.104 167.787 15.952C169.443 14.824 171.291 12.988 173.331 10.444C175.395 7.9 176.943 5.632 177.975 3.64ZM167.247 17.392C166.959 18.208 166.803 18.76 166.779 19.048C166.755 19.312 166.743 19.684 166.743 20.164C166.743 20.62 166.863 21.04 167.103 21.424C167.511 22.072 168.195 22.12 169.155 21.568C169.875 21.184 170.787 20.488 171.891 19.48C172.995 18.448 173.847 17.512 174.447 16.672C174.495 16.6 174.567 16.564 174.663 16.564C174.879 16.564 174.939 16.72 174.843 17.032C174.483 17.68 173.811 18.508 172.827 19.516C171.867 20.524 170.991 21.328 170.199 21.928C169.407 22.504 168.615 22.792 167.823 22.792C165.999 22.792 165.087 21.904 165.087 20.128C165.087 20.056 165.087 19.984 165.087 19.912C165.183 18.232 166.035 15.7 167.643 12.316C169.251 8.908 170.703 6.34 171.999 4.612L173.115 3.208C173.379 2.896 173.763 2.512 174.267 2.056C175.227 1.144 176.211 0.688 177.219 0.688C178.251 0.688 178.947 0.999999 179.307 1.624C179.427 1.84 179.487 2.152 179.487 2.56C179.487 2.968 179.307 3.544 178.947 4.288C176.475 8.584 172.575 12.952 167.247 17.392ZM174.316 22.36C174.004 22.72 173.932 23.008 174.1 23.224C174.292 23.44 174.496 23.548 174.712 23.548C174.952 23.548 175.192 23.512 175.432 23.44C176.464 23.128 177.46 22.516 178.42 21.604C179.404 20.668 179.896 19.72 179.896 18.76C179.896 18.232 179.308 17.656 178.132 17.032C177.58 16.744 177.268 16.576 177.196 16.528C176.548 16.096 176.14 15.664 175.972 15.232C175.636 15.808 175.096 16.636 174.352 17.716C174.184 17.908 174.028 17.956 173.884 17.86C173.74 17.74 173.728 17.584 173.848 17.392C174.832 16.048 175.48 14.92 175.792 14.008C175.96 12.688 176.92 11.5 178.672 10.444C180.424 9.388 182.02 8.86 183.46 8.86C184.372 8.86 185.008 9.028 185.368 9.364C185.752 9.676 185.944 9.988 185.944 10.3C185.944 10.612 185.848 10.972 185.656 11.38C185.488 11.788 185.128 12.172 184.576 12.532C184.432 12.628 184.312 12.604 184.216 12.46C184.168 12.316 184.264 12.124 184.504 11.884C184.768 11.62 184.936 11.272 185.008 10.84C185.08 10.408 184.888 10.144 184.432 10.048C184.36 10.048 184.288 10.048 184.216 10.048C183.28 10.048 182.104 10.396 180.688 11.092C179.296 11.788 178.204 12.688 177.412 13.792C177.1 14.2 176.944 14.62 176.944 15.052C176.944 15.46 177.232 15.832 177.808 16.168C178.048 16.312 178.456 16.54 179.032 16.852C179.608 17.164 180.016 17.392 180.256 17.536C180.496 17.68 180.784 17.908 181.12 18.22C181.456 18.532 181.636 18.82 181.66 19.084C181.78 19.804 181.444 20.596 180.652 21.46C179.524 22.708 177.844 23.584 175.612 24.088C175.108 24.208 174.592 24.268 174.064 24.268C173.56 24.268 173.212 24.076 173.02 23.692C172.948 23.596 172.912 23.44 172.912 23.224C172.912 23.032 173.104 22.708 173.488 22.252C173.848 21.892 174.424 21.544 175.216 21.208C175.288 21.184 175.348 21.196 175.396 21.244C175.444 21.292 175.456 21.352 175.432 21.424C175.408 21.496 175.276 21.58 175.036 21.676C174.82 21.772 174.58 22 174.316 22.36Z" fill="white"/>
</svg>
